<?xml version="1.0" encoding="UTF-8"?>
<!DOCTYPE svg PUBLIC "-//W3C//DTD SVG 1.1//EN" "http://www.w3.org/Graphics/SVG/1.1/DTD/svg11.dtd">
<!-- Creator: CorelDRAW 2020 (64-Bit) -->
<svg xmlns="http://www.w3.org/2000/svg" xml:space="preserve" width="3.39904in" height="0.615697in" version="1.1" style="shape-rendering:geometricPrecision; text-rendering:geometricPrecision; image-rendering:optimizeQuality; fill-rule:evenodd; clip-rule:evenodd"
viewBox="0 0 2011.2 364.31"
 xmlns:xlink="http://www.w3.org/1999/xlink"
 xmlns:xodm="http://www.corel.com/coreldraw/odm/2003">
 <defs>
  <style type="text/css">
   <![CDATA[
    .fil0 {fill:#ED3237}
    .fil4 {fill:#616161}
    .fil3 {fill:#ED3338}
    .fil2 {fill:#F58733}
    .fil1 {fill:#FFCC29}
    .fil5 {fill:#ED3237;fill-rule:nonzero}
   ]]>
  </style>
 </defs>
 <g id="Layer_x0020_1">
  <metadata id="CorelCorpID_0Corel-Layer"/>
  <path class="fil0" d="M54.15 119.16l-17.65 68.32c-0.65,2.5 -0.9,5.42 -0.8,8.64l-35.69 0c1.54,-2.73 2.73,-5.59 3.52,-8.64l41.77 -161.65c0.83,-3.22 1.14,-6.13 0.99,-8.77l63.19 0c15.41,0 27.75,2.82 37.03,8.42 14.13,8.73 18.79,22.43 13.97,41.06 -5.33,20.64 -19.15,35.5 -41.44,44.6 -13.08,5.32 -27.7,8.02 -43.89,8.02l-20.98 0zm872.6 -76.13l-8.81 0 -324.59 0 3.35 -12.99 324.6 0 5.46 0 17.4 0 6.99 -27.04 31.58 -3c-1.73,5.15 -2.81,8.56 -3.24,10.25l-5.11 19.79 24.88 0 -3.36 12.99 -24.88 0 -32.86 127.4c-2.13,8.28 0.58,12.44 8.24,12.44 3.66,0 8.66,-1.38 14.96,-4.2l-3.73 14.47c-9.34,3.67 -18.51,5.5 -27.44,5.5 -10.12,0 -17.01,-2.23 -20.64,-6.67 -3.64,-4.47 -4.2,-11.42 -1.79,-20.77l33.06 -128.16 -14.04 0zm-869.03 62.34l17.63 0c9.67,0 17.83,-1.57 24.51,-4.7 6.38,-3.08 11.99,-7.61 16.81,-13.66 4.87,-6.04 8.23,-12.71 10.14,-20.1 2.93,-11.33 1.79,-20.29 -3.39,-26.82 -5.23,-6.49 -13.87,-9.77 -25.91,-9.77l-20.39 0 -19.39 75.05zm128.65 -49.08l30.95 0 -4.6 17.82c4.68,-7.25 10.21,-12.4 16.65,-15.54 6.42,-3.09 15.5,-4.97 27.25,-5.55l-5.56 21.49c-2.3,-0.09 -3.91,-0.14 -4.75,-0.14 -22.16,0 -36.11,10.97 -41.79,32.96l-20.71 80.15c-0.81,3.13 -1.16,6 -1.1,8.64l-32.49 0c1.47,-2.82 2.61,-5.68 3.37,-8.64l31.67 -122.55c0.8,-3.13 1.15,-6 1.09,-8.64zm153.94 139.84l4.95 -19.16c-7.25,6.86 -13.84,11.73 -19.7,14.73 -9.29,4.61 -20.11,6.94 -32.35,6.94 -16.49,0 -28.08,-4.25 -34.73,-12.71 -5.54,-7.04 -6.59,-17.11 -3.18,-30.32l23.46 -90.81c0.76,-2.95 1.09,-5.77 1.06,-8.51l32.49 0c-1.37,2.46 -2.5,5.29 -3.34,8.51l-22.68 87.77c-1.95,7.52 -1.52,13.52 1.27,18 3.76,5.68 10.84,8.51 21.25,8.51 10.57,0 19.76,-2.73 27.69,-8.2 7.93,-5.47 13.03,-12.59 15.28,-21.32l21.9 -84.76c0.79,-3.04 1.13,-5.86 1.07,-8.51l32.48 0c-1.33,2.29 -2.45,5.1 -3.33,8.51l-31.7 122.69c-0.72,2.77 -1.08,5.69 -1.1,8.64l-30.81 0zm167.63 -20.33c-6.87,6.54 -12.79,11.28 -17.69,14.19 -9.69,5.78 -20.75,8.64 -33.19,8.64 -17.92,0 -30,-6.58 -36.21,-19.79 -6.32,-13.57 -6.7,-31.21 -1.1,-52.88 5.78,-22.38 15.98,-40.43 30.64,-54.18 13.34,-12.49 29.43,-18.76 48.24,-18.76 9.13,0 16.57,1.43 22.16,4.25 5.63,2.87 10.26,7.48 13.8,13.84l15.37 -59.46c0.8,-3.13 1.15,-6 1.09,-8.64l32.49 0c-1.45,2.73 -2.59,5.6 -3.37,8.64l-45.43 175.84c-0.76,2.96 -1.11,5.82 -1.1,8.64l-30.95 0 5.25 -20.33zm-5.47 -107.96c-8.2,0 -15.95,2.69 -23.2,8.02 -12.17,9.09 -21.37,25.75 -27.62,49.98 -9.53,36.89 -2.9,55.34 19.91,55.34 11.85,0 22.1,-4.88 30.74,-14.64 8.63,-9.72 15.39,-24.05 20.28,-42.94 9.49,-36.72 2.79,-55.3 -20.1,-55.75zm194.62 118.97c-11.13,4.48 -20.67,7.57 -28.76,9.27 -8.04,1.7 -17.15,2.55 -27.26,2.55 -26.31,0 -44.45,-6.98 -54.46,-21 -8.96,-12.31 -10.66,-29.24 -5.1,-50.78 6.15,-23.78 17.88,-42.26 35.17,-55.47 16,-12.23 34.56,-18.36 55.79,-18.36 20.54,0 35.07,5.87 43.48,17.64 8.41,11.78 10.23,28.62 5.45,50.56l-106.88 0c-3.96,15.31 -5.24,27.54 -3.87,36.76 2.64,18.27 15.24,27.41 37.9,27.41 15.55,0 31.76,-5.42 48.64,-16.3l-0.09 17.73zm-78.5 -77.91l73.76 0c1.26,-7.97 1.7,-14.42 1.26,-19.43 -0.7,-7.43 -3.6,-13.39 -8.69,-17.96 -4.21,-3.76 -10,-5.64 -17.35,-5.64 -10.41,0 -19.92,3.76 -28.49,11.28 -8.61,7.52 -15.44,18.09 -20.49,31.75zm147.92 -52.62l30.81 0 -5.05 19.52c6.34,-6.53 12.21,-11.33 17.75,-14.42 10.33,-5.59 22.26,-8.37 35.88,-8.37 17.52,0 29.61,4.83 36.13,14.55 4.17,6.22 4.85,14.86 1.98,25.97l-24.28 93.94c-0.74,2.87 -1.09,5.78 -1.09,8.64l-32.48 0c1.3,-2.19 2.44,-5.06 3.37,-8.64l23.22 -89.87c2.06,-7.97 1.08,-14.11 -2.87,-18.49 -4.01,-4.34 -10.75,-6.54 -20.18,-6.54 -11.75,0 -21.4,2.96 -28.91,8.91 -7.89,6.27 -13.14,14.37 -15.69,24.23l-21.12 81.76c-0.79,3.05 -1.13,5.91 -1.1,8.64l-32.49 0c1.4,-2.55 2.53,-5.42 3.37,-8.64l31.7 -122.69c0.76,-2.95 1.1,-5.77 1.06,-8.51z"/>
  <polygon class="fil1" points="875.66,247.33 875.66,281.32 634.68,281.32 634.68,247.33 "/>
  <polygon class="fil2" points="604.35,247.33 604.35,281.32 363.37,281.32 363.37,247.33 "/>
  <polygon class="fil3" points="333.04,247.33 333.04,281.32 92.07,281.32 92.07,247.33 "/>
  <path class="fil4" d="M169.57 338l0 -23.92c0,-0.56 -0.28,-1.07 -0.83,-1.52 -0.55,-0.45 -1.2,-0.71 -1.95,-0.75l-1.86 -0.06c-0.51,-0.04 -0.82,-0.12 -0.95,-0.24 -0.13,-0.14 -0.19,-0.4 -0.19,-0.84 0,-0.43 0.07,-0.73 0.2,-0.86 0.14,-0.14 0.42,-0.2 0.87,-0.2 0.06,0 0.24,0.01 0.52,0.03 1.55,0.1 3.13,0.15 4.71,0.15 0.77,0 1.59,-0.05 2.45,-0.15 0.86,-0.1 1.33,-0.15 1.4,-0.15 0.24,0 2.12,3.72 5.67,11.16 3.54,7.44 7.19,14.72 10.95,21.83 1.19,-2.02 3.01,-5.54 5.48,-10.56 2.47,-5.03 5.04,-10.53 7.71,-16.53 0.41,-0.88 0.87,-1.95 1.36,-3.22 0.68,-1.71 1.22,-2.56 1.63,-2.56 0.06,0 0.24,0.01 0.52,0.03 1.1,0.1 2.16,0.15 3.17,0.15 1.07,0 2.13,-0.03 3.2,-0.09 1.08,-0.06 1.64,-0.09 1.68,-0.09 0.44,0 0.72,0.06 0.85,0.19 0.13,0.12 0.19,0.42 0.19,0.88 0,0.46 -0.07,0.75 -0.2,0.88 -0.14,0.14 -0.44,0.21 -0.9,0.21l-1.8 0.06c-1.02,0.04 -1.75,0.36 -2.16,0.94 -0.42,0.59 -0.63,1.63 -0.63,3.1l0 28.52c0,1.42 0.2,2.4 0.58,2.94 0.39,0.56 1.1,0.89 2.14,0.98l1.92 0.18c0.04,0.02 0.1,0.03 0.17,0.03 0.62,0.04 0.94,0.37 0.96,0.99 0,0.48 -0.07,0.79 -0.21,0.92 -0.15,0.13 -0.45,0.2 -0.91,0.2 -0.14,0 -0.46,-0.01 -0.96,-0.03 -2.17,-0.13 -4.25,-0.2 -6.24,-0.2 -1.99,0 -4.07,0.06 -6.22,0.17 -0.53,0.04 -0.85,0.06 -0.99,0.06 -0.45,0 -0.75,-0.06 -0.88,-0.19 -0.13,-0.13 -0.19,-0.45 -0.19,-0.94 0,-0.63 0.31,-0.95 0.93,-0.99 0.08,0 0.16,-0.01 0.2,-0.03l1.97 -0.18c0.99,-0.05 1.68,-0.35 2.05,-0.88 0.38,-0.54 0.57,-1.55 0.57,-3.04l0 -28.29 -7.09 15.78c-0.9,2.01 -2.12,4.68 -3.63,8 -2.23,4.9 -3.61,8.02 -4.15,9.33l-0.09 0.18c-0.56,1.36 -1.04,2.04 -1.45,2.04 -0.35,0 -0.77,-0.59 -1.25,-1.78 -0.41,-1 -0.79,-1.87 -1.13,-2.58 -1.91,-3.94 -4.01,-8.27 -6.33,-13 -2.31,-4.73 -5.2,-10.59 -8.69,-17.59l0.43 22.84c0,0.26 0.01,0.63 0.03,1.13 0.08,5.16 0.9,7.8 2.47,7.91l1.88 0.12 0.03 0c0.63,0.05 0.93,0.39 0.93,1.02 0,0.49 -0.07,0.81 -0.21,0.94 -0.13,0.13 -0.45,0.19 -0.98,0.19 -0.08,0 -0.28,-0.01 -0.62,-0.03 -1.71,-0.13 -3.4,-0.2 -5.09,-0.2 -1.67,0 -3.38,0.07 -5.1,0.2 -0.34,0.02 -0.54,0.03 -0.61,0.03 -0.53,0 -0.85,-0.06 -0.98,-0.19 -0.14,-0.13 -0.21,-0.45 -0.21,-0.94 0,-0.63 0.31,-0.97 0.93,-1.02l0.03 0 1.47 -0.12c1.3,-0.09 2.19,-0.75 2.68,-1.97 0.49,-1.23 0.72,-4 0.72,-8.37zm63.57 11.25c2.89,0 5.06,-1.04 6.5,-3.12 1.46,-2.09 2.19,-5.21 2.19,-9.38 0,-4.53 -0.6,-7.76 -1.79,-9.67 -1.19,-1.91 -3.16,-2.88 -5.92,-2.88 -3,0 -5.21,1.05 -6.65,3.17 -1.44,2.11 -2.15,5.39 -2.15,9.84 0,4.25 0.61,7.32 1.84,9.2 1.23,1.89 3.22,2.84 5.98,2.84zm13.91 -13.29c0,5.06 -1.18,8.88 -3.54,11.44 -2.36,2.59 -5.87,3.87 -10.51,3.87 -4.24,0 -7.45,-1.15 -9.6,-3.44 -2.16,-2.3 -3.24,-5.7 -3.24,-10.19 0,-5.16 1.17,-9.02 3.52,-11.61 2.34,-2.59 5.84,-3.88 10.51,-3.88 4.31,0 7.52,1.15 9.66,3.44 2.14,2.31 3.21,5.76 3.21,10.36zm9.46 9.2l0 -16.81c0,-1.18 -0.2,-2.05 -0.6,-2.58 -0.39,-0.53 -1.04,-0.83 -1.93,-0.89l-1.71 -0.11 -0.03 0c-0.64,-0.04 -0.96,-0.34 -0.98,-0.87 0.02,-0.41 0.11,-0.67 0.27,-0.79 0.16,-0.12 0.51,-0.18 1.03,-0.18l3.39 -0.06c0.91,-0.02 1.89,-0.07 2.94,-0.16 1.04,-0.09 1.63,-0.14 1.77,-0.16 0.21,0 0.36,0.05 0.44,0.15 0.09,0.09 0.13,0.24 0.13,0.45l0 2.97c1.32,-1.36 2.77,-2.36 4.36,-3.01 1.59,-0.65 3.41,-0.97 5.46,-0.97 2.99,0 5.12,0.7 6.41,2.1 1.29,1.41 1.93,3.77 1.93,7.08l0 13.81c0,1.26 0.15,2.12 0.44,2.58 0.31,0.46 0.84,0.73 1.61,0.78l2.1 0.21c0.06,0 0.12,0 0.2,0 0.59,0.04 0.87,0.33 0.87,0.88 0,0.42 -0.06,0.69 -0.18,0.82 -0.11,0.13 -0.4,0.19 -0.83,0.19 -0.14,0 -0.46,-0.02 -0.99,-0.06 -2.01,-0.1 -3.91,-0.17 -5.72,-0.17 -1.85,0 -3.78,0.06 -5.75,0.17 -0.49,0.04 -0.79,0.06 -0.91,0.06 -0.43,0 -0.72,-0.06 -0.82,-0.19 -0.12,-0.13 -0.18,-0.4 -0.18,-0.82 0,-0.55 0.27,-0.84 0.81,-0.88 0.08,0 0.15,0 0.21,0l2.08 -0.21c0.79,-0.05 1.36,-0.34 1.69,-0.84 0.32,-0.49 0.49,-1.34 0.49,-2.52l0 -12.89c0,-2.83 -0.46,-4.79 -1.4,-5.89 -0.93,-1.1 -2.53,-1.66 -4.79,-1.66 -2.01,0 -3.67,0.57 -5.02,1.7 -1.34,1.14 -2.02,2.51 -2.02,4.1l0 14.65c0,1.18 0.17,2.03 0.5,2.52 0.33,0.51 0.88,0.79 1.65,0.84l2.14 0.21c0.04,0 0.1,0 0.18,0 0.54,0.04 0.82,0.33 0.84,0.88 0,0.42 -0.06,0.69 -0.18,0.82 -0.11,0.13 -0.4,0.19 -0.83,0.19 -0.14,0 -0.46,-0.02 -0.99,-0.06 -1.99,-0.1 -3.89,-0.17 -5.69,-0.17 -1.84,0 -3.79,0.07 -5.84,0.2 -0.46,0.02 -0.75,0.03 -0.86,0.03 -0.45,0 -0.74,-0.06 -0.85,-0.19 -0.11,-0.13 -0.17,-0.4 -0.17,-0.82 0,-0.55 0.3,-0.84 0.9,-0.88 0.08,0 0.13,0 0.17,0l2.03 -0.21c0.79,-0.05 1.37,-0.34 1.7,-0.84 0.34,-0.49 0.51,-1.34 0.51,-2.52zm37 -8.59c-0.04,0.28 -0.07,0.61 -0.08,0.92 -0.01,0.33 -0.01,0.82 -0.01,1.46 0,3.51 0.6,6.09 1.78,7.75 1.18,1.66 3,2.49 5.48,2.49 1.97,0 3.58,-0.5 4.86,-1.5 1.28,-0.99 2.06,-2.37 2.35,-4.11 0.02,-0.18 0.05,-0.41 0.09,-0.71 0.13,-1.02 0.88,-1.54 2.24,-1.54 0.6,0 1,0.08 1.22,0.26 0.21,0.15 0.31,0.47 0.31,0.94 0,2.48 -1.05,4.56 -3.16,6.21 -2.11,1.66 -4.83,2.48 -8.14,2.48 -4.05,0 -7.11,-1.2 -9.19,-3.6 -2.08,-2.41 -3.12,-5.93 -3.12,-10.59 0,-4.98 1.05,-8.69 3.15,-11.14 2.1,-2.45 5.29,-3.69 9.57,-3.69 3.87,0 6.74,1.05 8.58,3.13 1.85,2.08 2.77,5.31 2.77,9.69 0,0.59 -0.1,1 -0.29,1.22 -0.2,0.21 -0.71,0.32 -1.54,0.32l-16.87 0zm-0.09 -2.04l13.39 0c0,-0.16 0.01,-0.39 0.03,-0.69 0.02,-0.32 0.03,-0.54 0.03,-0.68 0,-3.08 -0.53,-5.35 -1.57,-6.79 -1.05,-1.47 -2.67,-2.19 -4.86,-2.19 -2.36,0 -4.13,0.83 -5.28,2.5 -1.16,1.67 -1.75,4.21 -1.75,7.62l0 0.23zm37.32 16.08l-1.47 0c-0.14,0 -0.26,-0.05 -0.37,-0.16 -0.11,-0.11 -0.21,-0.3 -0.31,-0.56l-7.6 -21.14c-0.47,-1.28 -0.94,-2.23 -1.39,-2.86 -0.46,-0.63 -0.95,-0.98 -1.5,-1.06l-1.33 -0.12c-0.05,0 -0.1,0 -0.18,0 -0.53,-0.04 -0.78,-0.34 -0.78,-0.9 0,-0.41 0.05,-0.69 0.16,-0.8 0.11,-0.12 0.37,-0.18 0.8,-0.18 0.11,0 0.41,0.01 0.87,0.03 1.81,0.12 3.52,0.19 5.11,0.19 1.61,0 3.3,-0.07 5.09,-0.19 0.47,-0.02 0.75,-0.03 0.87,-0.03 0.42,0 0.69,0.05 0.79,0.15 0.11,0.09 0.17,0.38 0.17,0.84 0,0.55 -0.31,0.84 -0.9,0.9l-0.06 0 -1.4 0.06c-0.51,0.04 -0.95,0.23 -1.29,0.58 -0.34,0.36 -0.51,0.78 -0.51,1.28 0,0.16 0.05,0.46 0.17,0.91 0.02,0.05 0.04,0.12 0.06,0.18l6.77 19.27 6.62 -18.74c0.08,-0.22 0.13,-0.45 0.17,-0.7 0.03,-0.25 0.06,-0.54 0.06,-0.85 0,-0.65 -0.13,-1.13 -0.39,-1.42 -0.24,-0.3 -0.66,-0.46 -1.25,-0.5l-1.37 -0.06c-0.29,-0.01 -0.47,-0.07 -0.57,-0.15 -0.07,-0.07 -0.13,-0.33 -0.13,-0.75 0,-0.47 0.05,-0.77 0.15,-0.85 0.09,-0.09 0.34,-0.13 0.75,-0.13 0.08,0 0.28,0.01 0.6,0.03 1.38,0.12 2.68,0.19 3.9,0.19 1.24,0 2.54,-0.07 3.89,-0.19 0.29,-0.02 0.49,-0.03 0.58,-0.03 0.42,0 0.69,0.05 0.8,0.15 0.11,0.09 0.16,0.38 0.16,0.85 -0.02,0.6 -0.34,0.92 -0.96,0.98 -0.61,0.04 -1.13,0.2 -1.54,0.48 -0.61,0.37 -1.17,1.02 -1.71,1.99 -0.55,0.95 -1.31,2.73 -2.29,5.33l-5.05 13.15c-2.86,7.42 -5.33,12.36 -7.39,14.82 -2.06,2.46 -4.49,3.69 -7.31,3.69 -1.35,0 -2.49,-0.31 -3.41,-0.92 -0.92,-0.61 -1.38,-1.35 -1.38,-2.22 0,-0.53 0.27,-1.09 0.81,-1.69 0.55,-0.6 1.07,-0.9 1.6,-0.9 0.47,0 1.13,0.45 2,1.35 0.87,0.9 1.72,1.35 2.53,1.35 1.44,0 2.89,-0.93 4.34,-2.79 1.47,-1.86 2.79,-4.46 3.99,-7.81zm43.24 -9.39c0,3.19 0.27,5.25 0.81,6.18 0.55,0.92 1.54,1.37 2.99,1.37 0.75,0 1.54,-0.15 2.36,-0.44 0.82,-0.31 1.24,-0.45 1.28,-0.45 0.13,0 0.27,0.12 0.42,0.37 0.14,0.24 0.21,0.49 0.21,0.76 0,0.37 -0.7,0.83 -2.1,1.39 -1.41,0.54 -2.91,0.82 -4.49,0.82 -2.27,0 -3.91,-0.59 -4.94,-1.77 -1.03,-1.18 -1.55,-3.05 -1.55,-5.61 0,-0.77 0.02,-1.83 0.06,-3.17 0.04,-1.35 0.06,-2.32 0.06,-2.9l0 -12.93 -3.57 0c-0.47,0 -0.75,-0.04 -0.86,-0.14 -0.11,-0.09 -0.16,-0.34 -0.16,-0.73 0,-0.44 0.05,-0.72 0.16,-0.81 0.11,-0.1 0.47,-0.15 1.09,-0.15l3.34 0 0 -7.93c0,-0.31 0.05,-0.54 0.14,-0.69 0.09,-0.15 0.24,-0.25 0.44,-0.3 0.75,-0.25 1.58,-0.57 2.5,-0.98 0.92,-0.4 1.48,-0.59 1.66,-0.59 0.1,0.02 0.17,0.11 0.22,0.25 0.05,0.16 0.07,0.43 0.07,0.81 0,0.75 -0.03,1.71 -0.09,2.92 -0.06,1.2 -0.09,2.04 -0.09,2.52l0 3.99 5.53 0c0.48,0 0.78,0.05 0.89,0.16 0.12,0.11 0.17,0.36 0.17,0.75 0,0.41 -0.05,0.67 -0.17,0.78 -0.11,0.11 -0.49,0.15 -1.12,0.15l-5.29 0 0 16.39zm15.56 3.93l0 -33.12c0,-1.22 -0.19,-2.1 -0.55,-2.64 -0.37,-0.52 -0.97,-0.82 -1.82,-0.88l-1.78 -0.06 -0.03 0c-0.7,-0.06 -1.04,-0.38 -1.04,-0.95 0,-0.34 0.04,-0.58 0.13,-0.69 0.09,-0.11 0.31,-0.17 0.65,-0.17l0.53 0 3.42 -0.06c1.01,-0.04 2.05,-0.1 3.13,-0.19 1.09,-0.09 1.67,-0.13 1.78,-0.13 0.23,0.02 0.38,0.09 0.47,0.2 0.08,0.12 0.12,0.38 0.12,0.76 0,0.12 -0.03,0.54 -0.09,1.23 -0.06,0.68 -0.09,1.3 -0.09,1.87l0 15.82c1.24,-1.34 2.65,-2.34 4.25,-3 1.61,-0.66 3.44,-0.99 5.51,-0.99 2.99,0 5.12,0.7 6.4,2.1 1.29,1.41 1.94,3.77 1.94,7.08l0 13.81c0,1.26 0.15,2.12 0.44,2.58 0.31,0.46 0.84,0.73 1.62,0.78l2.15 0.21c0.03,0 0.09,0 0.17,0 0.56,0.04 0.84,0.33 0.84,0.88 0,0.42 -0.06,0.69 -0.18,0.82 -0.11,0.13 -0.4,0.19 -0.83,0.19 -0.14,0 -0.47,-0.02 -0.99,-0.06 -1.97,-0.1 -3.87,-0.17 -5.66,-0.17 -1.86,0 -3.81,0.07 -5.84,0.2 -0.46,0.02 -0.76,0.03 -0.89,0.03 -0.43,0 -0.71,-0.06 -0.82,-0.19 -0.11,-0.13 -0.17,-0.4 -0.17,-0.82 0,-0.55 0.28,-0.84 0.87,-0.88 0.08,0 0.14,0 0.2,0l2.03 -0.21c0.77,-0.05 1.32,-0.33 1.65,-0.82 0.32,-0.48 0.48,-1.33 0.48,-2.55l0 -12.88c0,-2.87 -0.46,-4.83 -1.37,-5.9 -0.91,-1.06 -2.5,-1.6 -4.77,-1.6 -1.99,0 -3.66,0.56 -5.01,1.67 -1.35,1.12 -2.02,2.47 -2.02,4.06l0 14.65c0,1.14 0.17,1.98 0.5,2.5 0.34,0.51 0.91,0.81 1.71,0.86l2.08 0.21c0.04,0 0.1,0 0.18,0 0.55,0.04 0.82,0.33 0.84,0.88 -0.02,0.45 -0.08,0.74 -0.19,0.85 -0.1,0.11 -0.37,0.16 -0.77,0.16 -0.13,0 -0.47,-0.02 -1.01,-0.06 -2.01,-0.1 -3.92,-0.17 -5.72,-0.17 -1.83,0 -3.79,0.07 -5.84,0.2 -0.47,0.02 -0.75,0.03 -0.86,0.03 -0.44,0 -0.73,-0.06 -0.84,-0.19 -0.12,-0.13 -0.18,-0.4 -0.18,-0.82 0,-0.55 0.3,-0.84 0.9,-0.88 0.08,0 0.13,0 0.17,0l2.09 -0.21c0.77,-0.05 1.32,-0.33 1.64,-0.83 0.32,-0.49 0.48,-1.33 0.48,-2.53zm35.58 -0.01l0 -16.79c0,-1.16 -0.2,-2.02 -0.58,-2.56 -0.39,-0.56 -0.98,-0.85 -1.8,-0.88l-1.83 -0.12 -0.05 0c-0.64,-0.04 -0.96,-0.33 -0.96,-0.87 0,-0.41 0.05,-0.67 0.16,-0.79 0.11,-0.12 0.4,-0.18 0.85,-0.18l0.29 0 3.42 -0.06c1.24,-0.04 2.55,-0.14 3.93,-0.26 0.33,-0.02 0.52,-0.04 0.6,-0.06 0.24,0 0.4,0.06 0.49,0.17 0.08,0.12 0.13,0.34 0.13,0.67l0 2.55c0.75,-1.18 1.64,-2.08 2.63,-2.67 1.01,-0.61 2.13,-0.91 3.37,-0.91 1.62,0 2.9,0.43 3.8,1.29 0.91,0.86 1.37,2.08 1.37,3.65 0,1.17 -0.17,1.97 -0.52,2.43 -0.35,0.45 -0.95,0.69 -1.8,0.69 -1.2,0 -1.88,-0.75 -2.03,-2.24 -0.02,-0.15 -0.04,-0.29 -0.06,-0.41 -0.1,-0.82 -0.37,-1.43 -0.81,-1.85 -0.44,-0.41 -1.07,-0.62 -1.86,-0.62 -1.32,0 -2.28,0.51 -2.89,1.55 -0.61,1.03 -0.92,2.7 -0.92,4.99l0 13.27c0,1.19 0.17,2.03 0.49,2.53 0.33,0.51 0.88,0.79 1.63,0.84l2.47 0.21c0.03,0 0.09,0 0.17,0 0.59,0.03 0.87,0.33 0.87,0.87 0,0.42 -0.06,0.7 -0.18,0.83 -0.11,0.13 -0.38,0.19 -0.81,0.19 -0.11,0 -0.42,-0.01 -0.89,-0.03 -2.13,-0.13 -4.19,-0.2 -6.18,-0.2 -1.89,0 -3.85,0.07 -5.9,0.2 -0.46,0.02 -0.76,0.03 -0.89,0.03 -0.43,0 -0.71,-0.06 -0.81,-0.19 -0.12,-0.13 -0.18,-0.41 -0.18,-0.83 0,-0.54 0.27,-0.83 0.82,-0.87 0.07,0 0.14,0 0.18,0l2.11 -0.21c0.8,-0.05 1.36,-0.34 1.69,-0.84 0.33,-0.51 0.5,-1.35 0.5,-2.53zm32.44 4.1c2.89,0 5.06,-1.04 6.5,-3.12 1.46,-2.09 2.18,-5.21 2.18,-9.38 0,-4.53 -0.6,-7.76 -1.79,-9.67 -1.19,-1.91 -3.16,-2.88 -5.92,-2.88 -3,0 -5.21,1.05 -6.65,3.17 -1.44,2.11 -2.15,5.39 -2.15,9.84 0,4.25 0.61,7.32 1.84,9.2 1.23,1.89 3.22,2.84 5.98,2.84zm13.9 -13.29c0,5.06 -1.17,8.88 -3.54,11.44 -2.37,2.59 -5.87,3.87 -10.51,3.87 -4.24,0 -7.44,-1.15 -9.6,-3.44 -2.16,-2.3 -3.24,-5.7 -3.24,-10.19 0,-5.16 1.17,-9.02 3.52,-11.61 2.34,-2.59 5.84,-3.88 10.5,-3.88 4.31,0 7.52,1.15 9.66,3.44 2.14,2.31 3.21,5.76 3.21,10.36zm27.07 11.37c-1.53,1.35 -3.09,2.35 -4.68,2.98 -1.59,0.64 -3.28,0.96 -5.08,0.96 -3,0 -5.15,-0.7 -6.45,-2.12 -1.3,-1.41 -1.94,-3.76 -1.94,-7.06l0 -13.75c0,-1.18 -0.19,-2.06 -0.56,-2.61 -0.38,-0.56 -0.96,-0.86 -1.76,-0.9l-1.83 -0.12 -0.05 0c-0.65,-0.06 -0.96,-0.35 -0.96,-0.9 0,-0.41 0.05,-0.67 0.15,-0.78 0.09,-0.11 0.37,-0.15 0.81,-0.15l0.29 0 3.51 -0.06c0.65,0 1.52,-0.05 2.59,-0.16 1.06,-0.11 1.8,-0.16 2.23,-0.16 0.22,0.03 0.38,0.1 0.46,0.22 0.07,0.13 0.12,0.38 0.12,0.74 0,0.07 -0.01,0.29 -0.04,0.64 -0.09,2.03 -0.14,4.12 -0.14,6.28l0 10.75c0,2.71 0.49,4.65 1.46,5.8 0.96,1.15 2.57,1.72 4.84,1.72 2.23,0 3.96,-0.6 5.19,-1.79 1.23,-1.19 1.84,-2.86 1.84,-5.01l0 -13.52c0,-1.16 -0.2,-2.02 -0.59,-2.6 -0.4,-0.57 -1,-0.87 -1.81,-0.91l-1.82 -0.12 -0.03 0c-0.65,-0.03 -0.96,-0.33 -0.96,-0.9 0,-0.41 0.05,-0.67 0.15,-0.78 0.09,-0.11 0.38,-0.15 0.84,-0.15l0.31 0 3.42 -0.06c0.66,0 1.52,-0.05 2.59,-0.16 1.08,-0.11 1.82,-0.16 2.23,-0.16 0.26,0 0.42,0.07 0.52,0.22 0.1,0.15 0.15,0.4 0.15,0.74 0,0.07 -0.01,0.27 -0.03,0.6 -0.1,2.05 -0.15,4.16 -0.15,6.32l0 14.7c0,1.19 0.19,2.05 0.56,2.62 0.36,0.57 0.94,0.86 1.73,0.88l1.87 0.08c0.46,0 0.75,0.05 0.83,0.14 0.1,0.1 0.16,0.34 0.18,0.73 0,0.6 -0.32,0.92 -0.96,0.96 -0.1,0 -0.21,0 -0.29,0l-3.36 0.12c-1.05,0.04 -2.09,0.08 -3.14,0.14 -1.04,0.06 -1.6,0.09 -1.64,0.09 -0.22,0 -0.37,-0.03 -0.46,-0.13 -0.09,-0.08 -0.13,-0.24 -0.13,-0.44l0 -2.94zm19.8 -15.64c0,2.5 0.5,4.37 1.48,5.59 0.99,1.23 2.5,1.85 4.53,1.85 2.09,0 3.66,-0.65 4.75,-1.95 1.07,-1.3 1.61,-3.22 1.61,-5.78 0,-2.46 -0.52,-4.31 -1.54,-5.57 -1.03,-1.25 -2.56,-1.88 -4.58,-1.88 -2.11,0 -3.67,0.64 -4.7,1.9 -1.02,1.28 -1.54,3.21 -1.54,5.83zm-0.49 18.08c-0.75,0.89 -1.33,1.82 -1.74,2.8 -0.4,0.98 -0.59,1.97 -0.59,2.97 0,2.27 0.67,3.96 2.03,5.08 1.36,1.11 3.42,1.67 6.19,1.67 3.37,0 5.94,-0.69 7.72,-2.05 1.78,-1.36 2.68,-3.33 2.68,-5.88 0,-1.88 -0.55,-3.18 -1.64,-3.89 -1.09,-0.7 -3.35,-1.06 -6.78,-1.06 -1.05,0 -2.22,0.03 -3.53,0.09 -1.31,0.06 -2.75,0.14 -4.34,0.26zm-1.67 -11.19c-0.96,-0.87 -1.67,-1.85 -2.14,-2.95 -0.47,-1.09 -0.69,-2.35 -0.69,-3.76 0,-3.05 0.92,-5.43 2.76,-7.14 1.84,-1.72 4.38,-2.57 7.63,-2.57 1.11,0 2.44,0.13 3.99,0.38 1.56,0.25 2.55,0.39 2.97,0.41l7.61 0 0 2.15 -4.93 0c0.79,0.91 1.37,1.86 1.76,2.84 0.38,0.97 0.56,2.05 0.56,3.21 0,2.98 -1.05,5.37 -3.15,7.14 -2.1,1.79 -4.92,2.68 -8.45,2.68 -1.17,0 -2.27,-0.11 -3.31,-0.34 -1.05,-0.22 -2.06,-0.56 -3.05,-1.03 -0.16,0.42 -0.27,0.86 -0.35,1.32 -0.07,0.46 -0.11,0.92 -0.11,1.41 0,1.04 0.31,1.8 0.96,2.25 0.64,0.46 1.71,0.68 3.19,0.68 0.06,0 0.86,-0.02 2.4,-0.06 1.54,-0.04 3.05,-0.07 4.51,-0.07 3.45,0 5.97,0.6 7.55,1.79 1.59,1.19 2.38,3.07 2.38,5.65 0,3.82 -1.3,6.72 -3.9,8.72 -2.61,1.99 -6.4,3 -11.4,3 -3.68,0 -6.49,-0.65 -8.47,-1.97 -1.96,-1.31 -2.94,-3.19 -2.94,-5.65 0,-0.6 0.07,-1.26 0.22,-1.96 0.15,-0.71 0.36,-1.46 0.62,-2.25l4.1 -3.23c-0.41,-0.77 -0.7,-1.55 -0.9,-2.33 -0.19,-0.79 -0.29,-1.6 -0.29,-2.43 0,-0.99 0.07,-1.96 0.22,-2.93 0.14,-0.97 0.36,-1.95 0.67,-2.97zm29.93 6.58l0 -33.12c0,-1.22 -0.19,-2.1 -0.55,-2.64 -0.37,-0.52 -0.97,-0.82 -1.83,-0.88l-1.77 -0.06 -0.03 0c-0.7,-0.06 -1.05,-0.38 -1.05,-0.95 0,-0.34 0.04,-0.58 0.13,-0.69 0.09,-0.11 0.31,-0.17 0.66,-0.17l0.52 0 3.42 -0.06c1.01,-0.04 2.05,-0.1 3.13,-0.19 1.09,-0.09 1.68,-0.13 1.78,-0.13 0.23,0.02 0.39,0.09 0.47,0.2 0.08,0.12 0.11,0.38 0.11,0.76 0,0.12 -0.03,0.54 -0.09,1.23 -0.06,0.68 -0.09,1.3 -0.09,1.87l0 15.82c1.24,-1.34 2.66,-2.34 4.25,-3 1.61,-0.66 3.44,-0.99 5.52,-0.99 2.98,0 5.11,0.7 6.4,2.1 1.29,1.41 1.93,3.77 1.93,7.08l0 13.81c0,1.26 0.15,2.12 0.45,2.58 0.3,0.46 0.84,0.73 1.61,0.78l2.15 0.21c0.03,0 0.09,0 0.17,0 0.56,0.04 0.84,0.33 0.84,0.88 0,0.42 -0.06,0.69 -0.18,0.82 -0.11,0.13 -0.4,0.19 -0.83,0.19 -0.14,0 -0.46,-0.02 -0.99,-0.06 -1.97,-0.1 -3.87,-0.17 -5.67,-0.17 -1.85,0 -3.8,0.07 -5.84,0.2 -0.47,0.02 -0.76,0.03 -0.89,0.03 -0.43,0 -0.71,-0.06 -0.81,-0.19 -0.12,-0.13 -0.18,-0.4 -0.18,-0.82 0,-0.55 0.29,-0.84 0.87,-0.88 0.08,0 0.14,0 0.2,0l2.03 -0.21c0.78,-0.05 1.32,-0.33 1.64,-0.82 0.32,-0.48 0.48,-1.33 0.48,-2.55l0 -12.88c0,-2.87 -0.46,-4.83 -1.37,-5.9 -0.91,-1.06 -2.5,-1.6 -4.77,-1.6 -1.99,0 -3.66,0.56 -5.01,1.67 -1.35,1.12 -2.02,2.47 -2.02,4.06l0 14.65c0,1.14 0.17,1.98 0.51,2.5 0.34,0.51 0.91,0.81 1.71,0.86l2.08 0.21c0.04,0 0.1,0 0.18,0 0.54,0.04 0.82,0.33 0.84,0.88 -0.02,0.45 -0.08,0.74 -0.19,0.85 -0.11,0.11 -0.37,0.16 -0.77,0.16 -0.13,0 -0.47,-0.02 -1.01,-0.06 -2.01,-0.1 -3.92,-0.17 -5.72,-0.17 -1.83,0 -3.79,0.07 -5.83,0.2 -0.47,0.02 -0.75,0.03 -0.86,0.03 -0.45,0 -0.73,-0.06 -0.84,-0.19 -0.12,-0.13 -0.18,-0.4 -0.18,-0.82 0,-0.55 0.3,-0.84 0.9,-0.88 0.08,0 0.13,0 0.17,0l2.09 -0.21c0.77,-0.05 1.31,-0.33 1.64,-0.83 0.32,-0.49 0.48,-1.33 0.48,-2.53z"/>
  <path class="fil4" d="M607.9 350.62l-3.16 0c-0.14,0 -0.26,-0.06 -0.38,-0.19 -0.11,-0.13 -0.21,-0.3 -0.25,-0.51l-5.68 -18.73c-0.75,-2.59 -1.39,-4.28 -1.91,-5.05 -0.52,-0.79 -1.18,-1.22 -1.96,-1.31l-1.13 -0.12c-0.06,0 -0.15,-0.01 -0.26,-0.03 -0.41,-0.07 -0.61,-0.35 -0.61,-0.88 0,-0.43 0.05,-0.72 0.16,-0.82 0.11,-0.11 0.36,-0.16 0.77,-0.16 0.13,0 0.43,0.01 0.87,0.03 1.8,0.12 3.49,0.19 5.08,0.19 1.59,0 3.29,-0.07 5.09,-0.19 0.44,-0.02 0.74,-0.03 0.87,-0.03 0.44,0 0.72,0.05 0.84,0.16 0.12,0.11 0.18,0.39 0.18,0.82 -0.02,0.56 -0.32,0.86 -0.93,0.9l-0.02 0 -1.48 0.06c-0.55,0.04 -0.96,0.23 -1.25,0.57 -0.3,0.34 -0.44,0.81 -0.44,1.41 0,0.33 0.06,0.77 0.19,1.34 0.13,0.57 0.31,1.23 0.54,2.01l4.82 16.31 7.43 -22.87c0.06,-0.23 0.14,-0.41 0.25,-0.53 0.11,-0.11 0.23,-0.17 0.38,-0.17l3.34 0c0.16,0 0.3,0.06 0.42,0.19 0.12,0.13 0.23,0.31 0.31,0.53l6.18 22.98 3.63 -11.08c0.68,-2.04 1.2,-3.83 1.57,-5.38 0.37,-1.55 0.56,-2.67 0.56,-3.37 0,-0.65 -0.12,-1.13 -0.37,-1.42 -0.24,-0.3 -0.65,-0.46 -1.23,-0.5l-1.61 -0.06c-0.35,0 -0.57,-0.05 -0.65,-0.15 -0.08,-0.09 -0.13,-0.35 -0.13,-0.75 0,-0.46 0.06,-0.74 0.16,-0.84 0.11,-0.1 0.38,-0.15 0.8,-0.15 0.1,0 0.33,0.01 0.7,0.03 1.46,0.12 2.82,0.19 4.08,0.19 1.27,0 2.62,-0.07 4.06,-0.19 0.33,-0.02 0.54,-0.03 0.64,-0.03 0.41,0 0.66,0.04 0.77,0.13 0.11,0.09 0.16,0.38 0.16,0.86 0,0.55 -0.21,0.84 -0.63,0.87 -0.4,0.02 -0.74,0.07 -1.02,0.14 -0.75,0.2 -1.4,0.63 -1.93,1.28 -0.53,0.66 -1.06,1.72 -1.59,3.19l-7.14 20.68c-0.12,0.43 -0.32,0.64 -0.58,0.64l-3.34 0c-0.16,0 -0.3,-0.07 -0.44,-0.2 -0.14,-0.14 -0.21,-0.3 -0.25,-0.49l-6.19 -22.42 -7.55 22.48c-0.1,0.19 -0.21,0.35 -0.33,0.46 -0.12,0.12 -0.25,0.18 -0.39,0.18zm38.48 -37.73c0,-1.3 0.26,-2.24 0.77,-2.82 0.51,-0.58 1.33,-0.87 2.45,-0.87 1.1,0 1.91,0.3 2.42,0.88 0.52,0.59 0.78,1.53 0.78,2.8 0,1.28 -0.26,2.22 -0.78,2.84 -0.5,0.6 -1.32,0.92 -2.42,0.92 -1.1,0 -1.91,-0.31 -2.44,-0.92 -0.53,-0.62 -0.78,-1.56 -0.78,-2.84zm0.78 32.28l0 -16.81c0,-1.2 -0.19,-2.07 -0.57,-2.6 -0.38,-0.54 -0.99,-0.81 -1.84,-0.85l-1.83 -0.12 -0.02 0c-0.65,-0.04 -0.96,-0.32 -0.96,-0.87 0,-0.41 0.05,-0.66 0.16,-0.78 0.11,-0.11 0.39,-0.17 0.82,-0.17l0.32 0 3.42 -0.06c1.01,-0.02 2.04,-0.07 3.11,-0.16 1.06,-0.09 1.64,-0.14 1.71,-0.16 0.26,0 0.42,0.06 0.49,0.17 0.08,0.12 0.12,0.34 0.12,0.67l0 21.75c0,1.18 0.16,2.03 0.48,2.52 0.31,0.51 0.87,0.79 1.64,0.84l2.09 0.21c0.03,0 0.1,0 0.2,0 0.58,0.04 0.87,0.33 0.87,0.88 0,0.42 -0.06,0.69 -0.17,0.82 -0.11,0.13 -0.4,0.19 -0.85,0.19 -0.13,0 -0.45,-0.02 -0.98,-0.06 -2.01,-0.1 -3.92,-0.17 -5.72,-0.17 -1.87,0 -3.85,0.07 -5.9,0.2 -0.46,0.02 -0.77,0.03 -0.89,0.03 -0.43,0 -0.7,-0.06 -0.81,-0.19 -0.12,-0.13 -0.18,-0.4 -0.18,-0.82 0,-0.55 0.27,-0.84 0.82,-0.88 0.08,0 0.14,0 0.18,0l2.11 -0.21c0.77,-0.05 1.34,-0.34 1.68,-0.84 0.34,-0.49 0.51,-1.34 0.51,-2.52zm17.26 -2.69l0.41 2.07c0.34,1.74 0.9,2.94 1.71,3.6 0.81,0.66 2.08,0.99 3.81,0.99 2.21,0 3.91,-0.46 5.13,-1.38 1.22,-0.93 1.83,-2.21 1.83,-3.85 0,-1.4 -0.34,-2.45 -1.04,-3.14 -0.7,-0.69 -2.28,-1.34 -4.74,-1.91 -3.76,-0.93 -6.21,-1.96 -7.39,-3.06 -1.17,-1.1 -1.76,-2.69 -1.76,-4.76 0,-2.66 0.93,-4.79 2.81,-6.4 1.86,-1.61 4.36,-2.41 7.48,-2.41 1.8,0 3.51,0.19 5.14,0.58 1.61,0.39 2.42,0.67 2.42,0.84l0.12 6.37c0,0.33 -0.07,0.55 -0.18,0.67 -0.11,0.12 -0.38,0.17 -0.81,0.17l-0.31 0c-0.58,0 -0.93,-0.03 -1.05,-0.09 -0.1,-0.06 -0.24,-0.33 -0.38,-0.82l-0.51 -1.77c-0.06,-0.19 -0.13,-0.47 -0.21,-0.82 -0.27,-1.12 -0.67,-1.86 -1.19,-2.23 -0.45,-0.34 -0.95,-0.58 -1.53,-0.75 -0.56,-0.17 -1.22,-0.24 -1.95,-0.24 -1.68,0 -3.02,0.45 -4.01,1.34 -0.99,0.89 -1.48,2.09 -1.48,3.6 0,2.43 2.14,4.23 6.42,5.4 0.75,0.2 1.34,0.35 1.74,0.47 2.54,0.78 4.29,1.68 5.26,2.72 0.97,1.02 1.45,2.45 1.45,4.26 0,2.97 -0.98,5.26 -2.93,6.88 -1.95,1.62 -4.75,2.43 -8.37,2.43 -2.48,0 -4.54,-0.21 -6.2,-0.63 -1.65,-0.41 -2.49,-0.9 -2.49,-1.46l0 -6.87c0.02,-0.31 0.08,-0.51 0.19,-0.6 0.11,-0.1 0.43,-0.15 0.94,-0.15 0.74,0 1.18,0.04 1.33,0.11 0.14,0.06 0.27,0.35 0.36,0.85zm43.94 4.86c-1.01,1.34 -2.19,2.33 -3.55,2.97 -1.37,0.65 -2.96,0.97 -4.78,0.97 -4,0 -7.04,-1.23 -9.1,-3.68 -2.06,-2.46 -3.09,-6.06 -3.09,-10.86 0,-4.82 1.04,-8.45 3.13,-10.9 2.09,-2.45 5.21,-3.68 9.33,-3.68 1.89,0 3.5,0.28 4.82,0.84 1.32,0.56 2.4,1.43 3.25,2.62l0 -13.58c0,-1.22 -0.19,-2.09 -0.55,-2.63 -0.37,-0.52 -0.97,-0.82 -1.83,-0.88l-1.77 -0.06 -0.07 0c-0.67,-0.06 -1.01,-0.38 -1.01,-0.96 0,-0.34 0.04,-0.58 0.11,-0.69 0.09,-0.11 0.29,-0.17 0.64,-0.17l0.55 0 3.42 -0.06c1.48,-0.04 2.94,-0.13 4.38,-0.26 0.3,-0.04 0.46,-0.06 0.52,-0.06 0.24,0 0.39,0.06 0.47,0.19 0.08,0.13 0.12,0.37 0.12,0.72 0,0.06 0,0.23 0,0.53 -0.08,1.83 -0.12,3.71 -0.12,5.6l0 31.75c0,1.22 0.19,2.09 0.55,2.64 0.37,0.54 0.94,0.82 1.73,0.84l1.81 0.06c0.46,0 0.75,0.06 0.88,0.19 0.13,0.13 0.19,0.39 0.19,0.77 0,0.42 -0.06,0.69 -0.18,0.8 -0.11,0.11 -0.48,0.16 -1.13,0.16l-2.14 0c-0.93,0 -1.95,0.03 -3.07,0.09 -1.11,0.06 -1.75,0.08 -1.93,0.08l-0.75 0c-0.35,0 -0.58,-0.03 -0.68,-0.12 -0.11,-0.08 -0.17,-0.24 -0.17,-0.47l0 -2.75zm0.18 -10.59c0,-4.68 -0.58,-7.95 -1.73,-9.79 -1.15,-1.84 -3.13,-2.76 -5.94,-2.76 -2.73,0 -4.72,1 -5.97,3 -1.25,2 -1.88,5.18 -1.88,9.55 0,4.47 0.61,7.66 1.83,9.6 1.22,1.93 3.22,2.91 6.01,2.91 2.77,0 4.74,-0.93 5.91,-2.81 1.17,-1.87 1.76,-5.1 1.76,-9.69zm26.89 12.5c2.89,0 5.06,-1.04 6.5,-3.12 1.46,-2.09 2.18,-5.21 2.18,-9.38 0,-4.53 -0.59,-7.76 -1.78,-9.67 -1.19,-1.91 -3.17,-2.88 -5.92,-2.88 -3,0 -5.21,1.05 -6.65,3.17 -1.43,2.11 -2.15,5.39 -2.15,9.84 0,4.25 0.61,7.32 1.84,9.2 1.23,1.89 3.22,2.84 5.97,2.84zm13.91 -13.29c0,5.06 -1.18,8.88 -3.54,11.44 -2.37,2.59 -5.87,3.87 -10.52,3.87 -4.24,0 -7.45,-1.15 -9.6,-3.44 -2.16,-2.3 -3.24,-5.7 -3.24,-10.19 0,-5.16 1.17,-9.02 3.52,-11.61 2.34,-2.59 5.84,-3.88 10.51,-3.88 4.3,0 7.52,1.15 9.66,3.44 2.14,2.31 3.21,5.76 3.21,10.36zm9.46 9.2l0 -16.81c0,-1.21 -0.21,-2.08 -0.62,-2.64 -0.42,-0.54 -1.07,-0.84 -1.96,-0.89l-1.66 -0.05c-0.45,0 -0.74,-0.06 -0.85,-0.18 -0.11,-0.11 -0.16,-0.35 -0.16,-0.69 0,-0.41 0.06,-0.67 0.19,-0.79 0.13,-0.12 0.49,-0.18 1.12,-0.18l3.39 -0.06c0.58,-0.02 1.4,-0.07 2.45,-0.16 1.04,-0.09 1.79,-0.14 2.26,-0.16 0.21,0 0.37,0.05 0.46,0.15 0.07,0.09 0.13,0.24 0.13,0.45l0 2.97c1.22,-1.36 2.58,-2.36 4.07,-3.01 1.5,-0.65 3.22,-0.97 5.16,-0.97 1.96,0 3.56,0.38 4.81,1.12 1.25,0.74 2.12,1.85 2.63,3.35 1.4,-1.54 2.87,-2.69 4.44,-3.39 1.57,-0.72 3.36,-1.08 5.37,-1.08 2.84,0 4.88,0.7 6.08,2.07 1.21,1.39 1.82,3.76 1.82,7.1l0 13.82c0,1.26 0.14,2.12 0.44,2.58 0.31,0.46 0.85,0.73 1.61,0.78l2.09 0.21c0.05,0 0.11,0 0.2,0 0.55,0.04 0.81,0.33 0.81,0.88 0,0.44 -0.05,0.72 -0.16,0.83 -0.11,0.12 -0.37,0.18 -0.77,0.18 -0.17,0 -0.53,-0.02 -1.1,-0.06 -1.95,-0.1 -3.78,-0.17 -5.46,-0.17 -1.74,0 -3.54,0.07 -5.37,0.2 -0.37,0.02 -0.61,0.03 -0.69,0.03 -0.41,0 -0.66,-0.05 -0.77,-0.16 -0.11,-0.11 -0.16,-0.4 -0.16,-0.85 0,-0.55 0.23,-0.84 0.72,-0.88 0.06,0 0.11,0 0.15,0l1.85 -0.21c0.67,-0.05 1.13,-0.34 1.42,-0.84 0.28,-0.49 0.41,-1.34 0.41,-2.52l0 -12.89c0,-2.85 -0.43,-4.8 -1.29,-5.88 -0.86,-1.07 -2.37,-1.61 -4.52,-1.61 -1.91,0 -3.51,0.56 -4.78,1.66 -1.27,1.1 -1.9,2.46 -1.9,4.06l0 14.66c0,1.18 0.14,2.03 0.42,2.52 0.28,0.51 0.75,0.79 1.41,0.84l1.86 0.21c0.04,0 0.1,0 0.18,0 0.48,0.04 0.72,0.33 0.72,0.88 -0.02,0.45 -0.08,0.74 -0.19,0.85 -0.11,0.11 -0.37,0.16 -0.78,0.16 -0.09,0 -0.33,-0.01 -0.69,-0.03 -1.78,-0.13 -3.54,-0.2 -5.25,-0.2 -1.73,0 -3.48,0.07 -5.26,0.2 -0.37,0.02 -0.59,0.03 -0.67,0.03 -0.42,0 -0.69,-0.06 -0.8,-0.18 -0.11,-0.11 -0.16,-0.39 -0.16,-0.83 0,-0.55 0.24,-0.84 0.72,-0.88 0.07,0 0.13,0 0.14,0l1.81 -0.21c0.68,-0.05 1.16,-0.34 1.45,-0.85 0.29,-0.51 0.44,-1.35 0.44,-2.51l0 -12.89c0,-2.83 -0.44,-4.78 -1.32,-5.87 -0.88,-1.07 -2.4,-1.62 -4.54,-1.62 -1.92,0 -3.51,0.56 -4.78,1.66 -1.27,1.1 -1.9,2.46 -1.9,4.06l0 14.66c0,1.16 0.14,2 0.45,2.51 0.31,0.51 0.78,0.8 1.43,0.85l1.8 0.21c0.04,0 0.1,0 0.18,0 0.48,0.04 0.72,0.33 0.72,0.88 0,0.44 -0.05,0.72 -0.16,0.83 -0.1,0.12 -0.37,0.18 -0.8,0.18 -0.09,0 -0.35,-0.01 -0.75,-0.03 -1.77,-0.13 -3.48,-0.2 -5.14,-0.2 -1.82,0 -3.73,0.06 -5.72,0.17 -0.53,0.04 -0.85,0.06 -0.99,0.06 -0.44,0 -0.73,-0.06 -0.84,-0.19 -0.12,-0.13 -0.18,-0.4 -0.18,-0.82 0,-0.55 0.3,-0.84 0.9,-0.88 0.08,0 0.13,0 0.17,0l2.03 -0.21c0.8,-0.05 1.37,-0.34 1.7,-0.84 0.34,-0.49 0.51,-1.34 0.51,-2.52z"/>
  <polygon class="fil4" points="823.69,332.74 875.99,332.74 875.99,335.81 823.69,335.81 "/>
  <polygon class="fil4" points="91.72,332.74 144.02,332.74 144.02,335.81 91.72,335.81 "/>
  <path class="fil5" d="M1160.26 109.64c8.89,0 16.43,-3.45 22.08,-10.04l-8.16 -9.63c-3.35,3.56 -7.74,6.38 -13.29,6.38 -10.04,0 -16.53,-8.16 -16.53,-22.18 0,-13.71 7.43,-21.97 16.74,-21.97 4.92,0 8.58,2.3 12.03,5.44l8.16 -9.84c-4.61,-4.71 -11.72,-8.89 -20.51,-8.89 -17.26,0 -32.23,13.18 -32.23,35.78 0,22.91 14.44,34.95 31.7,34.95z"/>
  <path id="1" class="fil5" d="M1213.73 109.64c13.08,0 25.21,-9.94 25.21,-27.2 0,-17.26 -12.14,-27.2 -25.21,-27.2 -13.18,0 -25.32,9.94 -25.32,27.2 0,17.26 12.14,27.2 25.32,27.2zm0 -12.45c-6.38,0 -9.52,-5.75 -9.52,-14.75 0,-9 3.14,-14.75 9.52,-14.75 6.28,0 9.52,5.76 9.52,14.75 0,9 -3.24,14.75 -9.52,14.75z"/>
  <path id="2" class="fil5" d="M1249.51 108.38l15.38 0 0 -30.13c2.72,-7.01 7.53,-9.52 11.4,-9.52 2.2,0 3.77,0.31 5.65,0.84l2.51 -13.29c-1.47,-0.63 -3.25,-1.05 -6.17,-1.05 -5.34,0 -10.99,3.35 -14.75,10.36l-0.42 0 -1.05 -9.1 -12.56 0 0 51.89z"/>
  <path id="3" class="fil5" d="M1291.15 127.63l15.38 0 0 -15.17 -0.52 -8.27c3.66,3.45 7.85,5.44 12.35,5.44 11.2,0 21.87,-10.25 21.87,-28.04 0,-16.01 -7.74,-26.37 -20.3,-26.37 -5.44,0 -10.67,2.72 -14.75,6.38l-0.42 0 -1.05 -5.12 -12.56 0 0 71.15zm23.65 -30.55c-2.62,0 -5.54,-0.84 -8.27,-3.35l0 -21.24c3.03,-3.24 5.75,-4.71 8.89,-4.71 6.17,0 9,4.71 9,14.02 0,10.67 -4.29,15.27 -9.63,15.27z"/>
  <path id="4" class="fil5" d="M1373.39 109.64c13.08,0 25.21,-9.94 25.21,-27.2 0,-17.26 -12.14,-27.2 -25.21,-27.2 -13.18,0 -25.32,9.94 -25.32,27.2 0,17.26 12.14,27.2 25.32,27.2zm0 -12.45c-6.38,0 -9.52,-5.75 -9.52,-14.75 0,-9 3.14,-14.75 9.52,-14.75 6.28,0 9.52,5.76 9.52,14.75 0,9 -3.24,14.75 -9.52,14.75z"/>
  <path id="5" class="fil5" d="M1409.17 108.38l15.38 0 0 -30.13c2.72,-7.01 7.53,-9.52 11.4,-9.52 2.2,0 3.77,0.31 5.65,0.84l2.51 -13.29c-1.47,-0.63 -3.25,-1.05 -6.17,-1.05 -5.34,0 -10.99,3.35 -14.75,10.36l-0.42 0 -1.05 -9.1 -12.56 0 0 51.89z"/>
  <path id="6" class="fil5" d="M1460.96 109.64c5.86,0 10.67,-2.72 15.06,-6.59l0.42 0 1.05 5.34 12.56 0 0 -29.72c0,-15.9 -7.32,-23.43 -20.61,-23.43 -8.16,0 -15.59,2.82 -22.18,6.8l5.54 10.15c5.02,-2.93 9.31,-4.71 13.71,-4.71 5.65,0 7.85,2.93 8.16,7.53 -20.51,2.09 -29.19,8.06 -29.19,18.94 0,8.79 5.96,15.69 15.49,15.69zm5.23 -11.93c-3.66,0 -5.96,-1.57 -5.96,-4.92 0,-3.98 3.56,-7.11 14.44,-8.58l0 9.1c-2.72,2.72 -5.02,4.4 -8.47,4.4z"/>
  <path id="7" class="fil5" d="M1521.12 109.64c5.02,0 8.79,-1.05 11.51,-1.88l-2.41 -11.2c-1.36,0.52 -3.25,1.05 -4.92,1.05 -4.08,0 -6.7,-2.41 -6.7,-8.27l0 -20.82 12.45 0 0 -12.03 -12.45 0 0 -13.81 -12.76 0 -1.78 13.81 -7.95 0.63 0 11.41 7.11 0 0 21.03c0,12.03 5.02,20.09 17.89,20.09z"/>
  <path id="8" class="fil5" d="M1562.56 109.64c6.17,0 13.08,-2.2 18.41,-5.86l-5.13 -9.31c-3.77,2.3 -7.32,3.45 -11.19,3.45 -6.91,0 -12.14,-3.45 -13.5,-10.99l31.07 0c0.31,-1.26 0.63,-4.08 0.63,-6.8 0,-14.12 -7.32,-24.9 -22.08,-24.9 -12.45,0 -24.48,10.36 -24.48,27.2 0,17.16 11.41,27.2 26.26,27.2zm-11.51 -32.85c1.05,-6.59 5.23,-9.84 10.04,-9.84 6.17,0 8.68,4.08 8.68,9.84l-18.73 0z"/>
  <path id="9" class="fil5" d="M1631.71 73.85c1.88,-6.8 3.66,-14.75 5.34,-21.97l0.42 0c1.78,7.12 3.66,15.17 5.55,21.97l1.57 6.28 -14.54 0 1.67 -6.28zm-24.69 34.53l15.69 0 4.18 -16.22 20.82 0 4.19 16.22 16.32 0 -21.34 -68.22 -18.52 0 -21.34 68.22z"/>
  <path id="10" class="fil5" d="M1692.92 109.64c5.02,0 10.15,-2.72 13.81,-6.38l0.42 0 1.05 5.13 12.55 0 0 -73.34 -15.38 0 0 17.68 0.63 7.95c-3.56,-3.35 -7.01,-5.44 -12.76,-5.44 -10.99,0 -21.55,10.25 -21.55,27.2 0,16.95 8.37,27.2 21.24,27.2zm3.98 -12.56c-5.96,0 -9.42,-4.6 -9.42,-14.86 0,-9.84 4.39,-14.44 9.31,-14.44 2.83,0 5.86,0.84 8.58,3.35l0 21.24c-2.51,3.45 -5.13,4.71 -8.47,4.71z"/>
  <path id="11" class="fil5" d="M1746.29 108.38l17.79 0 16.95 -51.89 -14.75 0 -6.8 24.48c-1.36,5.12 -2.72,10.57 -3.98,16.01l-0.42 0c-1.36,-5.44 -2.72,-10.88 -4.08,-16.01l-6.7 -24.48 -15.48 0 17.47 51.89z"/>
  <path id="12" class="fil5" d="M1789.08 108.38l15.38 0 0 -51.89 -15.38 0 0 51.89zm7.64 -59.53c5.23,0 8.89,-3.35 8.89,-8.06 0,-4.71 -3.66,-7.95 -8.89,-7.95 -5.13,0 -8.89,3.24 -8.89,7.95 0,4.71 3.77,8.06 8.89,8.06z"/>
  <path id="13" class="fil5" d="M1833.23 109.64c13.91,0 21.34,-7.32 21.34,-16.74 0,-9.52 -7.43,-13.18 -14.02,-15.59 -5.34,-1.99 -10.15,-3.25 -10.15,-6.59 0,-2.62 1.88,-4.08 5.86,-4.08 3.66,0 7.22,1.67 10.99,4.4l6.91 -9.21c-4.5,-3.35 -10.36,-6.59 -18.31,-6.59 -12.03,0 -19.88,6.59 -19.88,16.22 0,8.58 7.43,12.87 13.71,15.28 5.33,2.09 10.57,3.66 10.57,7.11 0,2.72 -1.99,4.39 -6.59,4.39 -4.4,0 -8.68,-1.88 -13.39,-5.44l-6.91 9.63c5.23,4.29 13.08,7.22 19.88,7.22z"/>
  <path id="14" class="fil5" d="M1886.59 109.64c13.08,0 25.21,-9.94 25.21,-27.2 0,-17.26 -12.14,-27.2 -25.21,-27.2 -13.18,0 -25.32,9.94 -25.32,27.2 0,17.26 12.14,27.2 25.32,27.2zm0 -12.45c-6.38,0 -9.52,-5.75 -9.52,-14.75 0,-9 3.14,-14.75 9.52,-14.75 6.28,0 9.52,5.76 9.52,14.75 0,9 -3.24,14.75 -9.52,14.75z"/>
  <path id="15" class="fil5" d="M1922.37 108.38l15.38 0 0 -30.13c2.72,-7.01 7.53,-9.52 11.4,-9.52 2.2,0 3.77,0.31 5.65,0.84l2.51 -13.29c-1.47,-0.63 -3.25,-1.05 -6.17,-1.05 -5.34,0 -10.99,3.35 -14.75,10.36l-0.42 0 -1.05 -9.1 -12.56 0 0 51.89z"/>
  <path id="16" class="fil5" d="M1970.5 128.68c12.24,0 17.79,-6.7 22.7,-19.77l18 -52.42 -14.75 0 -6.28 22.28c-1.26,4.92 -2.41,9.84 -3.56,14.75l-0.42 0c-1.36,-5.13 -2.62,-10.04 -4.08,-14.75l-7.43 -22.28 -15.48 0 19.98 50.53 -0.73 2.72c-1.36,4.08 -3.98,6.8 -9.1,6.8 -1.15,0 -2.51,-0.42 -3.45,-0.63l-2.72 11.72c2.09,0.63 4.18,1.05 7.32,1.05z"/>
  <path id="17" class="fil5" d="M1152.62 228.02c16.32,0 25.74,-9.84 25.74,-21.14 0,-9.63 -5.23,-15.17 -13.5,-18.52l-8.79 -3.56c-5.86,-2.41 -10.36,-3.87 -10.36,-8.06 0,-3.87 3.35,-6.17 8.68,-6.17 5.44,0 9.63,1.99 14.12,5.44l7.85 -9.73c-5.86,-5.86 -14.13,-9 -21.97,-9 -14.23,0 -24.27,9 -24.27,20.3 0,9.94 6.7,15.8 13.7,18.62l8.89 3.77c5.96,2.51 9.84,3.87 9.84,8.16 0,4.08 -3.14,6.59 -9.52,6.59 -5.65,0 -11.93,-2.93 -16.84,-7.11l-8.79 10.57c6.9,6.49 16.32,9.84 25.21,9.84z"/>
  <path id="18" class="fil5" d="M1211.95 228.02c6.17,0 13.08,-2.2 18.41,-5.86l-5.13 -9.31c-3.77,2.3 -7.32,3.45 -11.19,3.45 -6.91,0 -12.14,-3.45 -13.5,-10.99l31.07 0c0.31,-1.26 0.63,-4.08 0.63,-6.8 0,-14.12 -7.32,-24.9 -22.08,-24.9 -12.45,0 -24.48,10.36 -24.48,27.2 0,17.16 11.41,27.2 26.26,27.2zm-11.51 -32.85c1.05,-6.59 5.23,-9.84 10.04,-9.84 6.17,0 8.68,4.08 8.68,9.84l-18.73 0z"/>
  <path id="19" class="fil5" d="M1242.92 226.77l15.38 0 0 -30.13c2.72,-7.01 7.53,-9.52 11.4,-9.52 2.2,0 3.77,0.31 5.65,0.84l2.51 -13.29c-1.47,-0.63 -3.25,-1.05 -6.17,-1.05 -5.34,0 -10.99,3.35 -14.75,10.36l-0.42 0 -1.05 -9.1 -12.56 0 0 51.89z"/>
  <path id="20" class="fil5" d="M1297.22 226.77l17.79 0 16.95 -51.89 -14.75 0 -6.8 24.48c-1.36,5.12 -2.72,10.57 -3.98,16.01l-0.42 0c-1.36,-5.44 -2.72,-10.88 -4.08,-16.01l-6.7 -24.48 -15.48 0 17.47 51.89z"/>
  <path id="21" class="fil5" d="M1340.01 226.77l15.38 0 0 -51.89 -15.38 0 0 51.89zm7.64 -59.53c5.23,0 8.89,-3.35 8.89,-8.06 0,-4.71 -3.66,-7.95 -8.89,-7.95 -5.13,0 -8.89,3.24 -8.89,7.95 0,4.71 3.77,8.06 8.89,8.06z"/>
  <path id="22" class="fil5" d="M1391.49 228.02c5.65,0 12.03,-1.67 17.16,-6.17l-6.07 -10.04c-2.72,2.09 -5.96,3.77 -9.31,3.77 -6.7,0 -11.61,-5.75 -11.61,-14.75 0,-9 4.71,-14.75 12.14,-14.75 2.41,0 4.5,0.94 7.01,3.04l7.22 -9.94c-3.87,-3.24 -8.79,-5.54 -15.17,-5.54 -14.34,0 -26.99,9.94 -26.99,27.2 0,17.26 11.2,27.2 25.63,27.2z"/>
  <path id="23" class="fil5" d="M1438.05 228.02c6.17,0 13.08,-2.2 18.41,-5.86l-5.13 -9.31c-3.77,2.3 -7.32,3.45 -11.19,3.45 -6.91,0 -12.14,-3.45 -13.5,-10.99l31.07 0c0.31,-1.26 0.63,-4.08 0.63,-6.8 0,-14.12 -7.32,-24.9 -22.08,-24.9 -12.45,0 -24.48,10.36 -24.48,27.2 0,17.16 11.41,27.2 26.26,27.2zm-11.51 -32.85c1.05,-6.59 5.23,-9.84 10.04,-9.84 6.17,0 8.68,4.08 8.68,9.84l-18.73 0z"/>
  <path id="24" class="fil5" d="M1484.29 228.02c13.91,0 21.34,-7.32 21.34,-16.74 0,-9.52 -7.43,-13.18 -14.02,-15.59 -5.34,-1.99 -10.15,-3.25 -10.15,-6.59 0,-2.62 1.88,-4.08 5.86,-4.08 3.66,0 7.22,1.67 10.99,4.4l6.91 -9.21c-4.5,-3.35 -10.36,-6.59 -18.31,-6.59 -12.03,0 -19.88,6.59 -19.88,16.22 0,8.58 7.43,12.87 13.71,15.28 5.33,2.09 10.57,3.66 10.57,7.11 0,2.72 -1.99,4.39 -6.59,4.39 -4.4,0 -8.68,-1.88 -13.39,-5.44l-6.91 9.63c5.23,4.29 13.08,7.22 19.88,7.22z"/>
  <polygon id="25" class="fil5" points="1537.55,226.77 1579.92,226.77 1579.92,213.79 1552.93,213.79 1552.93,158.55 1537.55,158.55 "/>
  <path id="26" class="fil5" d="M1590.49 226.77l15.38 0 0 -51.89 -15.38 0 0 51.89zm7.64 -59.53c5.23,0 8.89,-3.35 8.89,-8.06 0,-4.71 -3.66,-7.95 -8.89,-7.95 -5.13,0 -8.89,3.24 -8.89,7.95 0,4.71 3.77,8.06 8.89,8.06z"/>
  <path id="27" class="fil5" d="M1619.36 226.77l15.38 0 0 -35.05c3.24,-3.35 6.28,-5.02 8.79,-5.02 4.39,0 6.38,2.3 6.38,9.84l0 30.24 15.38 0 0 -35.05c3.35,-3.35 6.28,-5.02 8.89,-5.02 4.4,0 6.38,2.3 6.38,9.84l0 30.24 15.38 0 0 -32.23c0,-12.97 -5.02,-20.92 -16.22,-20.92 -6.91,0 -11.72,3.97 -16.32,8.68 -2.62,-5.55 -7.01,-8.68 -14.33,-8.68 -6.8,0 -11.41,3.66 -15.69,7.95l-0.42 0 -1.05 -6.7 -12.56 0 0 51.89z"/>
  <path id="28" class="fil5" d="M1709.03 226.77l15.38 0 0 -51.89 -15.38 0 0 51.89zm7.64 -59.53c5.23,0 8.89,-3.35 8.89,-8.06 0,-4.71 -3.66,-7.95 -8.89,-7.95 -5.13,0 -8.89,3.24 -8.89,7.95 0,4.71 3.77,8.06 8.89,8.06z"/>
  <path id="29" class="fil5" d="M1757.89 228.02c5.02,0 8.79,-1.05 11.51,-1.88l-2.41 -11.2c-1.36,0.52 -3.25,1.05 -4.92,1.05 -4.08,0 -6.7,-2.41 -6.7,-8.27l0 -20.82 12.45 0 0 -12.03 -12.45 0 0 -13.81 -12.76 0 -1.78 13.81 -7.95 0.63 0 11.41 7.11 0 0 21.03c0,12.03 5.02,20.09 17.89,20.09z"/>
  <path id="30" class="fil5" d="M1799.32 228.02c6.17,0 13.08,-2.2 18.41,-5.86l-5.13 -9.31c-3.77,2.3 -7.32,3.45 -11.19,3.45 -6.91,0 -12.14,-3.45 -13.5,-10.99l31.07 0c0.31,-1.26 0.63,-4.08 0.63,-6.8 0,-14.12 -7.32,-24.9 -22.08,-24.9 -12.45,0 -24.48,10.36 -24.48,27.2 0,17.16 11.41,27.2 26.26,27.2zm-11.51 -32.85c1.05,-6.59 5.23,-9.84 10.04,-9.84 6.17,0 8.68,4.08 8.68,9.84l-18.73 0z"/>
  <path id="31" class="fil5" d="M1848.81 228.02c5.02,0 10.15,-2.72 13.81,-6.38l0.42 0 1.05 5.13 12.55 0 0 -73.34 -15.38 0 0 17.68 0.63 7.95c-3.56,-3.35 -7.01,-5.44 -12.76,-5.44 -10.99,0 -21.55,10.25 -21.55,27.2 0,16.95 8.37,27.2 21.24,27.2zm3.98 -12.56c-5.96,0 -9.42,-4.6 -9.42,-14.86 0,-9.84 4.39,-14.44 9.31,-14.44 2.83,0 5.86,0.84 8.58,3.35l0 21.24c-2.51,3.45 -5.13,4.71 -8.47,4.71z"/>
 </g>
</svg>
