<?xml version="1.0" encoding="UTF-8"?>
<!DOCTYPE svg PUBLIC "-//W3C//DTD SVG 1.1//EN" "http://www.w3.org/Graphics/SVG/1.1/DTD/svg11.dtd">
<!-- Creator: CorelDRAW 2020 (64-Bit) -->
<svg xmlns="http://www.w3.org/2000/svg" xml:space="preserve" width="3.66163in" height="0.614752in" version="1.1" style="shape-rendering:geometricPrecision; text-rendering:geometricPrecision; image-rendering:optimizeQuality; fill-rule:evenodd; clip-rule:evenodd"
viewBox="0 0 82155.41 13793.11"
 xmlns:xlink="http://www.w3.org/1999/xlink"
 xmlns:xodm="http://www.corel.com/coreldraw/odm/2003">
 <defs>
  <style type="text/css">
   <![CDATA[
    .fil3 {fill:#F58634}
    .fil2 {fill:#606062;fill-rule:nonzero}
    .fil1 {fill:#ED3237;fill-rule:nonzero}
    .fil0 {fill:#F58634;fill-rule:nonzero}
   ]]>
  </style>
 </defs>
 <g id="Layer_x0020_1">
  <metadata id="CorelCorpID_0Corel-Layer"/>
  <path class="fil0" d="M19192.09 6718.52c0,2177.17 1795.3,2444.56 2699.31,2444.56 292.92,0 496.61,-38.07 496.61,-38.07l0 -1413.35c0,0 -114.57,25.53 -292.83,25.53 -445.65,0 -1286.06,-152.99 -1286.06,-1222.54l0 -2622.99 1477.03 0 0 -1285.97 -1477.03 0 0 -1769.86 -568.43 0c-284.08,-41.78 -1036.07,105.82 -1012.31,1021.85 43.99,1700.43 -36.31,3157.41 -36.31,4860.85z"/>
  <path class="fil0" d="M22831.19 5793.39c0,1846.36 1336.94,3399.8 3488.84,3399.8 1617.13,0 2610.36,-980.42 2610.36,-980.42l-674.87 -1120.61c0,0 -776.72,725.84 -1820.83,725.84 -980.51,0 -1820.92,-598.38 -1948.21,-1744.33l4482.07 0c0,0 38.25,-407.49 38.25,-598.55 0,-1718.89 -1018.67,-3081.45 -2877.75,-3081.45 -1948.21,0 -3297.87,1400.63 -3297.87,3399.72zm1706.26 -840.41c178.26,-814.79 763.91,-1311.5 1591.6,-1311.5 662.15,0 1196.93,534.77 1222.37,1311.5l-2813.97 0z"/>
  <path class="fil1" d="M-0 9040.47c302.63,0 316.15,0 618.78,0 471.7,23.5 1014.78,-230.99 1049.23,-783.35l0 -2336.17 1642.57 0c1693.45,0 2877.57,-1222.54 2877.57,-2979.69 0,-1757.14 -1184.12,-2941.26 -2877.57,-2941.26l-1944.59 0 -1364.5 0 -0.27 1436.84 -1.24 7603.62zm1668.01 -4545.67l0 -3081.45 1362.38 0c916.82,0 1451.59,598.46 1451.59,1527.92 0,942.35 -534.77,1553.53 -1477.03,1553.53l-1336.94 0z"/>
  <path class="fil2" d="M10721.38 13259.57l160.41 -751.02c13.34,-68.02 19.61,-116.69 19.61,-146.55 0,-107.24 -53,-160.5 -159.71,-160.5 -64.04,0 -127.02,21.55 -188.15,64.13 -61.13,42.49 -114.83,104.41 -161.56,186.03 -46.64,81.36 -82.24,179.58 -105.91,294.42l-109.71 513.49 -182.23 0 358.19 -1689.3 182.32 0c-12.99,59.27 -25.62,116.95 -37.45,172.52 -11.84,56 -24.47,112.27 -37.01,170.04 -12.63,57.51 -26.32,117.93 -41.16,180.91 -14.75,62.98 -32.24,131.44 -51.5,205.2l11.93 0c68.11,-88.86 135.15,-152.64 201.14,-191.24 66.34,-38.07 135.59,-57.33 207.85,-57.33 94.87,0 168.19,25.88 220.04,78.18 51.5,52.29 77.47,125.96 77.47,221.54 0,44.87 -8.13,104.85 -24.82,180.11 -28.18,139.57 -80.83,382.58 -157.5,729.37l-182.23 0zm1025.47 22.35c-133.03,0 -237.53,-39.66 -313.41,-118.63 -75.97,-78.97 -114.13,-188.15 -114.13,-327.9 0,-135.95 27.03,-266.33 80.74,-391.67 54.06,-124.82 125.61,-221.81 214.48,-291.5 88.95,-69.25 187.18,-104.15 294.24,-104.15 110.77,0 193.72,24.2 249.72,72.35 55.56,48.14 83.3,115.1 83.3,201.05 0,130.47 -59.98,232.76 -180.02,306.87 -120.05,74.02 -291.94,111.12 -515.69,111.12l-35.6 0 -4.42 87.1c0,94.78 22.17,168.98 66.69,221.9 44.43,53.35 113.33,80.03 206.7,80.03 45.58,0 92.57,-6.71 140.8,-19.7 48.14,-12.9 107.77,-36.66 179.67,-71.46l0 158.56c-68.19,31.89 -128.17,54.06 -180.47,67.13 -51.85,12.46 -109.62,18.9 -172.6,18.9zm151.14 -1078.12c-74.82,0 -144.51,33.92 -210.06,101.76 -65.54,67.84 -115.63,162 -150.43,282.76l12.99 0c164.83,0 291.59,-21.55 379.4,-64.48 87.8,-42.93 131.88,-105.21 131.88,-186.65 0,-38.69 -13.34,-70.14 -39.66,-95.75 -26.32,-25.18 -67.75,-37.63 -124.11,-37.63zm655.44 1055.77l-182.32 0 360.49 -1689.3 182.32 0 -360.49 1689.3zm911.78 22.35c-70.4,0 -131.88,-18.2 -184.53,-54.5 -52.91,-35.95 -93.72,-86.66 -122.61,-151.93l-11.13 0 -4.06 41.16c-2.21,18.2 -6.27,43.37 -11.48,75.97 -5.57,32.6 -47.08,232.58 -124.46,600.5l-180.02 0 364.55 -1722.78 151.14 0 -28.18 226.4 8.57 0c129.59,-164.12 264.12,-246.36 403.78,-246.36 98.93,0 177.11,35.25 234.53,105.91 57.06,70.49 85.6,169.78 85.6,296.71 0,153.79 -24.82,294.68 -74.82,422.86 -50.09,128.17 -118.99,227.73 -207.5,299.01 -88.16,71.37 -188.24,107.06 -299.36,107.06zm201.93 -1080.41c-69.7,0 -140.45,34.45 -212.27,102.91 -71.9,68.99 -129.32,155.29 -171.54,259.88 -42.22,103.97 -63.34,210.68 -63.34,320.03 0,79.68 19.96,140.45 59.98,182.94 40.37,42.22 98.14,63.42 174.11,63.42 71.9,0 138.6,-29.33 200.43,-87.8 61.92,-58.92 111.57,-142.31 149.37,-250.43 37.37,-108.3 56.27,-223.13 56.27,-344.5 0,-164.12 -64.48,-246.45 -193.01,-246.45zm735.73 1058.07l-182.23 0 253.78 -1189.24 182.59 0 -254.14 1189.24zm122.61 -1493.82c0,-40.37 11.48,-73.67 34.89,-99.29 22.97,-25.53 52.91,-38.51 90.01,-38.51 63.69,0 95.58,32.6 95.58,97.79 0,39.66 -12.19,73.49 -36.31,100.88 -24.47,27.3 -52.21,41.16 -84.09,41.16 -28.89,0 -53,-8.57 -71.9,-26.32 -18.9,-17.93 -28.18,-43.11 -28.18,-75.7zm986.69 1493.82l160.41 -751.02c14.4,-75.08 21.82,-127.38 21.82,-156.26 0,-45.49 -12.99,-81.8 -38.51,-109.62 -25.53,-27.47 -66.69,-41.16 -123.4,-41.16 -64.04,0 -127.02,21.91 -188.15,65.28 -61.13,43.28 -114.83,105.21 -161.56,185.5 -46.64,80.12 -82.24,177.46 -105.91,292.03l-109.71 515.25 -182.23 0 253.78 -1189.24 151.14 0 -24.12 219.69 10.78 0c69.61,-88.16 136.65,-150.34 201.49,-187.09 64.84,-36.57 131.97,-54.86 201.23,-54.86 91.87,0 164.48,25.26 217.83,75.61 53,50.09 79.68,120.4 79.68,211.12 0,57.06 -8.13,122.25 -24.82,195.4l-155.29 729.37 -184.44 0zm1685.68 -1189.24l-27.47 116.42 -228.96 25.79c29.68,44.87 44.52,101.5 44.52,170.84 0,138.24 -41.87,248.57 -126.32,330.55 -84.18,82.24 -197.16,123.4 -338.32,123.4 -39.66,0 -69.96,-3.09 -91.16,-8.57 -100.35,38.07 -150.79,85.6 -150.79,141.86 0,29.68 11.93,49.29 35.95,58.92 23.76,9.63 58.57,17.4 104.15,23.32l127.02 15.28c130.82,15.9 226.05,47.7 284.97,95.58 58.92,47.7 88.51,117.66 88.51,210.41 0,133.3 -53,236.29 -158.56,309.35 -105.56,72.88 -254.49,109.62 -446.09,109.62 -140.36,0 -250.43,-26.68 -330.1,-79.59 -79.59,-53.44 -119.25,-128.17 -119.25,-225.34 0,-75.97 25.88,-141.51 78.18,-197.43 51.85,-55.56 136.3,-103 252.99,-141.86 -56.62,-29.77 -84.8,-73.41 -84.8,-131.53 0,-49.64 18.55,-92.75 55.21,-128.61 37.01,-35.51 88.51,-69.34 154.14,-100.44 -45.58,-22.97 -82.68,-57.33 -111.57,-102.64 -28.89,-45.05 -43.37,-97.7 -43.37,-157.68 0,-140.45 43.02,-255.29 129.67,-345.39 86.39,-89.66 196.72,-134.53 331.61,-134.53 56.36,0 111.92,7.42 167.13,22.26l402.72 0zm-1155.94 1401.24c0,55.92 23.32,99.91 70.4,132.59 47.08,32.6 116.69,48.94 209.35,48.94 131.88,0 234.88,-22.97 308.99,-68.9 74.02,-45.93 111.12,-111.12 111.12,-195.31 0,-44.87 -19.7,-80.3 -58.57,-106.35 -38.87,-26.32 -105.56,-44.43 -199.72,-54.5l-172.6 -17.31c-86.66,18.2 -153.35,50 -199.72,95.58 -46.29,45.58 -69.25,100.7 -69.25,165.27zm301.57 -949.95c0,61.48 16.34,108.56 48.94,140.72 32.6,32.33 77.73,48.14 135.59,48.14 57.06,0 107.06,-15.19 149.64,-45.58 43.02,-30.39 75.61,-72.17 98.23,-125.52 22.97,-52.91 34.45,-110.77 34.45,-173.05 0,-59.54 -15.99,-104.76 -47.79,-135.86 -31.89,-31.27 -77.47,-46.82 -136.74,-46.82 -56.71,0 -106,14.84 -148.22,44.17 -42.22,29.33 -75.17,70.05 -98.93,122.61 -23.32,52.65 -35.16,109.71 -35.16,171.19zm1457.95 -451.3l182.23 0 80.38 591.31c7.42,50.09 14.49,123.4 21.11,220.75 7.07,97.17 10.42,175.7 10.42,234.97l6.63 0c25.26,-63.07 56.71,-135.15 94.52,-217.04 37.45,-81.62 65.19,-138.24 83.39,-169.34l352.63 -660.65 193.45 0 -755.43 1390.91c-67.4,124.46 -134.09,210.68 -199.72,259.26 -65.9,48.58 -145.22,72.61 -237.8,72.61 -52.29,0 -102.64,-7.42 -151.93,-22.53l0 -146.1c45.58,13.07 93.02,19.7 142.31,19.7 59.27,0 109.98,-18.2 152.2,-54.77 42.67,-36.66 83.39,-90.81 123.4,-162.27l82.24 -147.52 -180.02 -1209.29zm1618.28 -15.55c137.45,0 246.01,40.72 325.6,122.34 79.68,81.36 119.34,193.36 119.34,336.02 0,135.86 -25.97,264.47 -78.18,385.23 -52.21,120.75 -122.61,214.21 -211.56,280.02 -88.86,66.07 -189.65,99.02 -301.93,99.02 -138.95,0 -247.87,-40.81 -326.75,-122.7 -78.53,-81.8 -118.19,-193.72 -118.19,-335.58 0,-137.54 26.32,-266.86 79.24,-388.23 53,-121.28 124.11,-214.21 213.77,-279.05 89.66,-64.93 189.39,-97.08 298.66,-97.08zm255.99 433.46c0,-83.39 -22.61,-150.79 -67.84,-202.64 -45.14,-51.41 -106.27,-77.47 -183.73,-77.47 -78.88,0 -149.64,26.68 -212.27,80.47 -62.63,53.27 -111.12,127.82 -145.57,222.96 -34.45,94.96 -51.5,200.87 -51.5,317.21 0,94.78 22.97,168.19 68.9,220.13 45.93,51.41 111.83,77.38 198.22,77.38 75.17,0 142.57,-26.41 202.99,-79.32 59.98,-52.56 106.71,-127.82 140.45,-225.34 33.66,-96.9 50.35,-208.12 50.35,-333.37zm782.46 -417.91l-162.62 754.29c-12.99,64.57 -19.61,114.48 -19.61,150.79 0,103.44 53.35,155.29 159.71,155.29 63.69,0 126.32,-21.91 187.8,-65.19 61.48,-43.28 115.63,-105.65 162.62,-186.83 47.08,-80.74 83.03,-178.52 107.5,-292.92l108.56 -515.43 180.02 0 -250.43 1189.24 -151.23 0 24.12 -219.69 -12.99 0c-71.11,90.37 -138.51,153.35 -202.99,188.59 -64.48,35.6 -131.18,53.44 -199.72,53.44 -92.57,0 -165.18,-25.26 -218.19,-75.7 -53,-49.91 -79.32,-121.9 -79.32,-215.27 0,-44.7 8.22,-107.06 24.12,-186.65l158.21 -733.97 184.44 0zm2565.31 0l-27.47 116.42 -228.96 25.79c29.68,44.87 44.52,101.5 44.52,170.84 0,138.24 -41.87,248.57 -126.32,330.55 -84.18,82.24 -197.16,123.4 -338.32,123.4 -39.66,0 -69.96,-3.09 -91.16,-8.57 -100.35,38.07 -150.79,85.6 -150.79,141.86 0,29.68 11.93,49.29 35.95,58.92 23.76,9.63 58.57,17.4 104.15,23.32l127.02 15.28c130.82,15.9 226.05,47.7 284.97,95.58 58.92,47.7 88.51,117.66 88.51,210.41 0,133.3 -53,236.29 -158.56,309.35 -105.56,72.88 -254.49,109.62 -446.09,109.62 -140.36,0 -250.43,-26.68 -330.1,-79.59 -79.59,-53.44 -119.25,-128.17 -119.25,-225.34 0,-75.97 25.88,-141.51 78.18,-197.43 51.85,-55.56 136.3,-103 252.99,-141.86 -56.62,-29.77 -84.8,-73.41 -84.8,-131.53 0,-49.64 18.55,-92.75 55.21,-128.61 37.01,-35.51 88.51,-69.34 154.14,-100.44 -45.58,-22.97 -82.68,-57.33 -111.57,-102.64 -28.89,-45.05 -43.37,-97.7 -43.37,-157.68 0,-140.45 43.02,-255.29 129.67,-345.39 86.39,-89.66 196.72,-134.53 331.61,-134.53 56.36,0 111.92,7.42 167.13,22.26l402.72 0zm-1155.94 1401.24c0,55.92 23.32,99.91 70.4,132.59 47.08,32.6 116.69,48.94 209.35,48.94 131.88,0 234.88,-22.97 308.99,-68.9 74.02,-45.93 111.12,-111.12 111.12,-195.31 0,-44.87 -19.7,-80.3 -58.57,-106.35 -38.87,-26.32 -105.56,-44.43 -199.72,-54.5l-172.6 -17.31c-86.66,18.2 -153.35,50 -199.72,95.58 -46.29,45.58 -69.25,100.7 -69.25,165.27zm301.57 -949.95c0,61.48 16.34,108.56 48.94,140.72 32.6,32.33 77.73,48.14 135.59,48.14 57.06,0 107.06,-15.19 149.64,-45.58 43.02,-30.39 75.61,-72.17 98.23,-125.52 22.97,-52.91 34.45,-110.77 34.45,-173.05 0,-59.54 -15.99,-104.76 -47.79,-135.86 -31.89,-31.27 -77.47,-46.82 -136.74,-46.82 -56.71,0 -106,14.84 -148.22,44.17 -42.22,29.33 -75.17,70.05 -98.93,122.61 -23.32,52.65 -35.16,109.71 -35.16,171.19zm1590.19 -473.56c50,0 93.37,5.21 130.38,15.28l-39.22 163.42c-38.16,-9.36 -76.32,-14.22 -113.77,-14.22 -65.99,0 -127.82,21.91 -185.24,65.19 -57.42,43.46 -107.86,103.44 -150.79,180.47 -43.02,77.03 -74.82,162.71 -94.87,256.88l-116.34 544.49 -182.23 0 253.78 -1189.24 151.14 0 -24.12 219.69 10.78 0c52.21,-68.55 95.22,-117.75 129.32,-148.14 34.01,-30.03 69.61,-53 107.06,-69.34 37.01,-16.25 78.53,-24.47 124.11,-24.47zm717.63 6.71c137.45,0 246.01,40.72 325.6,122.34 79.68,81.36 119.34,193.36 119.34,336.02 0,135.86 -25.97,264.47 -78.18,385.23 -52.21,120.75 -122.61,214.21 -211.56,280.02 -88.86,66.07 -189.65,99.02 -301.93,99.02 -138.95,0 -247.87,-40.81 -326.75,-122.7 -78.53,-81.8 -118.19,-193.72 -118.19,-335.58 0,-137.54 26.32,-266.86 79.24,-388.23 53,-121.28 124.11,-214.21 213.77,-279.05 89.66,-64.93 189.39,-97.08 298.66,-97.08zm255.99 433.46c0,-83.39 -22.61,-150.79 -67.84,-202.64 -45.14,-51.41 -106.27,-77.47 -183.73,-77.47 -78.88,0 -149.64,26.68 -212.27,80.47 -62.63,53.27 -111.12,127.82 -145.57,222.96 -34.45,94.96 -51.5,200.87 -51.5,317.21 0,94.78 22.97,168.19 68.9,220.13 45.93,51.41 111.83,77.38 198.22,77.38 75.17,0 142.57,-26.41 202.99,-79.32 59.98,-52.56 106.71,-127.82 140.45,-225.34 33.66,-96.9 50.35,-208.12 50.35,-333.37zm1150.82 771.33l-34.8 -653.05c-3,-68.28 -4.51,-130.56 -4.51,-186.83l0 -169.34 -9.63 0 -54.41 128.17 -90.1 205.02 -315.62 676.02 -219.33 0 -46.64 -1189.24 177.82 0 19.61 644.75 0 95.14c0,106.27 -2.92,203.7 -8.48,291.86l6.27 0c34.1,-89.57 83.74,-205.91 148.93,-349.27l320.12 -682.47 197.43 0 40.02 644.75c4.51,121.37 6.71,215.89 6.71,284.17l0 57.33 -2.21 45.49 6.63 0c20.05,-62.19 50,-141.07 90.01,-237 39.66,-95.58 156.7,-360.93 350.51,-794.74l193.36 0 -549.44 1189.24 -222.25 0zm1375.27 -1189.24l182.23 0 80.38 591.31c7.42,50.09 14.49,123.4 21.11,220.75 7.07,97.17 10.42,175.7 10.42,234.97l6.63 0c25.26,-63.07 56.71,-135.15 94.52,-217.04 37.45,-81.62 65.19,-138.24 83.39,-169.34l352.63 -660.65 193.45 0 -755.43 1390.91c-67.4,124.46 -134.09,210.68 -199.72,259.26 -65.9,48.58 -145.22,72.61 -237.8,72.61 -52.29,0 -102.64,-7.42 -151.93,-22.53l0 -146.1c45.58,13.07 93.02,19.7 142.31,19.7 59.27,0 109.98,-18.2 152.2,-54.77 42.67,-36.66 83.39,-90.81 123.4,-162.27l82.24 -147.52 -180.02 -1209.29zm1618.28 -15.55c137.45,0 246.01,40.72 325.6,122.34 79.68,81.36 119.34,193.36 119.34,336.02 0,135.86 -25.97,264.47 -78.18,385.23 -52.21,120.75 -122.61,214.21 -211.56,280.02 -88.86,66.07 -189.65,99.02 -301.93,99.02 -138.95,0 -247.87,-40.81 -326.75,-122.7 -78.53,-81.8 -118.19,-193.72 -118.19,-335.58 0,-137.54 26.32,-266.86 79.24,-388.23 53,-121.28 124.11,-214.21 213.77,-279.05 89.66,-64.93 189.39,-97.08 298.66,-97.08zm255.99 433.46c0,-83.39 -22.61,-150.79 -67.84,-202.64 -45.14,-51.41 -106.27,-77.47 -183.73,-77.47 -78.88,0 -149.64,26.68 -212.27,80.47 -62.63,53.27 -111.12,127.82 -145.57,222.96 -34.45,94.96 -51.5,200.87 -51.5,317.21 0,94.78 22.97,168.19 68.9,220.13 45.93,51.41 111.83,77.38 198.22,77.38 75.17,0 142.57,-26.41 202.99,-79.32 59.98,-52.56 106.71,-127.82 140.45,-225.34 33.66,-96.9 50.35,-208.12 50.35,-333.37zm782.46 -417.91l-162.62 754.29c-12.99,64.57 -19.61,114.48 -19.61,150.79 0,103.44 53.35,155.29 159.71,155.29 63.69,0 126.32,-21.91 187.8,-65.19 61.48,-43.28 115.63,-105.65 162.62,-186.83 47.08,-80.74 83.03,-178.52 107.5,-292.92l108.56 -515.43 180.02 0 -250.43 1189.24 -151.23 0 24.12 -219.69 -12.99 0c-71.11,90.37 -138.51,153.35 -202.99,188.59 -64.48,35.6 -131.18,53.44 -199.72,53.44 -92.57,0 -165.18,-25.26 -218.19,-75.7 -53,-49.91 -79.32,-121.9 -79.32,-215.27 0,-44.7 8.22,-107.06 24.12,-186.65l158.21 -733.97 184.44 0zm1609.8 -22.26c50,0 93.37,5.21 130.38,15.28l-39.22 163.42c-38.16,-9.36 -76.32,-14.22 -113.77,-14.22 -65.99,0 -127.82,21.91 -185.24,65.19 -57.42,43.46 -107.86,103.44 -150.79,180.47 -43.02,77.03 -74.82,162.71 -94.87,256.88l-116.34 544.49 -182.23 0 253.78 -1189.24 151.14 0 -24.12 219.69 10.78 0c52.21,-68.55 95.22,-117.75 129.32,-148.14 34.01,-30.03 69.61,-53 107.06,-69.34 37.01,-16.25 78.53,-24.47 124.11,-24.47zm888.02 1211.5l-182.23 0 253.78 -1189.24 182.59 0 -254.14 1189.24zm122.61 -1493.82c0,-40.37 11.48,-73.67 34.89,-99.29 22.97,-25.53 52.91,-38.51 90.01,-38.51 63.69,0 95.58,32.6 95.58,97.79 0,39.66 -12.19,73.49 -36.31,100.88 -24.47,27.3 -52.21,41.16 -84.09,41.16 -28.89,0 -53,-8.57 -71.9,-26.32 -18.9,-17.93 -28.18,-43.11 -28.18,-75.7zm986.69 1493.82l160.41 -751.02c14.4,-75.08 21.82,-127.38 21.82,-156.26 0,-45.49 -12.99,-81.8 -38.51,-109.62 -25.53,-27.47 -66.69,-41.16 -123.4,-41.16 -64.04,0 -127.02,21.91 -188.15,65.28 -61.13,43.28 -114.83,105.21 -161.56,185.5 -46.64,80.12 -82.24,177.46 -105.91,292.03l-109.71 515.25 -182.23 0 253.78 -1189.24 151.14 0 -24.12 219.69 10.78 0c69.61,-88.16 136.65,-150.34 201.49,-187.09 64.84,-36.57 131.97,-54.86 201.23,-54.86 91.87,0 164.48,25.26 217.83,75.61 53,50.09 79.68,120.4 79.68,211.12 0,57.06 -8.13,122.25 -24.82,195.4l-155.29 729.37 -184.44 0zm733.53 0l-135.59 -1189.24 182.23 0 69.7 665.07c17.4,186.65 25.88,317.47 25.88,393.09l6.71 0c91.87,-199.02 156.7,-333.37 194.16,-402.72l352.63 -655.44 193.45 0 -641.75 1189.24 -247.42 0zm1318.56 22.35c-133.03,0 -237.53,-39.66 -313.41,-118.63 -75.97,-78.97 -114.13,-188.15 -114.13,-327.9 0,-135.95 27.03,-266.33 80.74,-391.67 54.06,-124.82 125.61,-221.81 214.48,-291.5 88.95,-69.25 187.18,-104.15 294.24,-104.15 110.77,0 193.72,24.2 249.72,72.35 55.56,48.14 83.3,115.1 83.3,201.05 0,130.47 -59.98,232.76 -180.02,306.87 -120.05,74.02 -291.94,111.12 -515.69,111.12l-35.6 0 -4.42 87.1c0,94.78 22.17,168.98 66.69,221.9 44.43,53.35 113.33,80.03 206.7,80.03 45.58,0 92.57,-6.71 140.8,-19.7 48.14,-12.9 107.77,-36.66 179.67,-71.46l0 158.56c-68.19,31.89 -128.17,54.06 -180.47,67.13 -51.85,12.46 -109.62,18.9 -172.6,18.9zm151.14 -1078.12c-74.82,0 -144.51,33.92 -210.06,101.76 -65.54,67.84 -115.63,162 -150.43,282.76l12.99 0c164.83,0 291.59,-21.55 379.4,-64.48 87.8,-42.93 131.88,-105.21 131.88,-186.65 0,-38.69 -13.34,-70.14 -39.66,-95.75 -26.32,-25.18 -67.75,-37.63 -124.11,-37.63zm1208.94 718.6c0,113.16 -40.02,200.87 -119.69,264.3 -80.03,63.25 -192.66,95.22 -338.23,95.22 -122.25,0 -232.67,-25.26 -331.25,-75.35l0 -171.46c50.79,30.39 105.65,54.06 164.12,70.67 58.57,16.78 113.07,24.91 162.71,24.91 91.07,0 160.06,-18.11 206.35,-54.06 46.29,-36.31 69.25,-82.68 69.25,-138.95 0,-41.52 -12.54,-76.06 -37.81,-104.5 -25.18,-28.18 -80.03,-66.69 -164.12,-115.98 -93.72,-52.91 -160.41,-104.76 -199.64,-155.29 -38.96,-50.7 -58.57,-110.68 -58.57,-180.29 0,-100.17 36.66,-180.47 109.62,-241.68 73.05,-61.13 169.34,-91.87 288.68,-91.87 123.76,0 243.36,26.68 358.28,80.47l-58.57 148.93 -60.77 -27.12c-72.96,-31.01 -152.64,-46.55 -238.94,-46.55 -67.05,0 -120.05,15.55 -158.21,46.99 -38.51,31.54 -57.77,72.17 -57.77,121.9 0,40.72 12.9,75.61 38.51,104.5 25.88,28.89 78.88,66.34 159.27,111.83 77.47,43.28 133.03,80.74 166.33,111.83 33.74,31.27 58.92,64.48 75.61,100.44 16.7,36.04 24.82,76.32 24.82,121.11zm582.83 210.5c40.02,0 91.87,-9.19 156.35,-28.18l0 140.1c-24.47,10.34 -54.86,18.9 -91.16,26.32 -36.31,6.98 -65.19,10.78 -86.74,10.78 -90.37,0 -159.62,-21.55 -207.85,-64.57 -48.14,-43.37 -72.17,-107.41 -72.17,-192.92 0,-47.52 6.27,-102.03 19.61,-162.8l137.8 -653.5 -186.74 0 15.19 -79.24 200.78 -84.45 135.68 -247.6 106.27 0 -59.63 273.48 297.51 0 -28.53 137.8 -296.01 0 -140.1 655.44c-12.9,62.98 -19.61,110.68 -19.61,143.37 0,40.81 10.42,71.9 31.54,93.37 21.11,21.82 50.35,32.6 87.8,32.6zm1047.38 126.67l160.77 -751.02c12.99,-68.02 19.26,-116.69 19.26,-146.55 0,-50.44 -11.13,-90.19 -33.3,-118.19 -22.61,-28.18 -60.77,-42.31 -115.28,-42.31 -60.69,0 -120.05,21.91 -177.46,65.28 -57.42,43.28 -108.12,105.21 -151.85,185.94 -43.73,80.74 -77.82,177.82 -101.5,291.59l-109.71 515.25 -182.23 0 253.78 -1189.24 151.14 0 -24.12 219.69 10.78 0c62.98,-85.95 125.96,-147.78 188.59,-185.5 62.54,-37.45 127.02,-56.45 193.72,-56.45 81.53,0 144.51,23.32 188.59,70.4 44.43,47.08 70.4,112.63 78.18,196.81l8.92 0c62.19,-90.45 128.53,-157.94 198.58,-201.67 69.96,-43.64 141.16,-65.54 212.62,-65.54 91.87,0 163.06,24.47 213.42,73.85 50.35,49.29 75.61,120.75 75.61,214.83 0,49.29 -8.22,113.77 -24.12,193.45l-156.35 729.37 -184.53 0 160.86 -751.02c14.4,-75.08 21.47,-128.08 21.47,-158.47 0,-44.79 -12.19,-80.74 -37.45,-107.77 -24.82,-27.12 -64.04,-40.81 -117.75,-40.81 -58.57,0 -116.34,21.11 -173.4,62.89 -57.42,41.96 -107.5,101.67 -150.43,178.7 -43.02,77.03 -75.97,168.19 -98.23,273.75l-116.34 542.72 -182.23 0zm1716.86 22.35c-133.03,0 -237.53,-39.66 -313.41,-118.63 -75.97,-78.97 -114.13,-188.15 -114.13,-327.9 0,-135.95 27.03,-266.33 80.74,-391.67 54.06,-124.82 125.61,-221.81 214.48,-291.5 88.95,-69.25 187.18,-104.15 294.24,-104.15 110.77,0 193.72,24.2 249.72,72.35 55.56,48.14 83.3,115.1 83.3,201.05 0,130.47 -59.98,232.76 -180.02,306.87 -120.05,74.02 -291.94,111.12 -515.69,111.12l-35.6 0 -4.42 87.1c0,94.78 22.17,168.98 66.69,221.9 44.43,53.35 113.33,80.03 206.7,80.03 45.58,0 92.57,-6.71 140.8,-19.7 48.14,-12.9 107.77,-36.66 179.67,-71.46l0 158.56c-68.19,31.89 -128.17,54.06 -180.47,67.13 -51.85,12.46 -109.62,18.9 -172.6,18.9zm151.14 -1078.12c-74.82,0 -144.51,33.92 -210.06,101.76 -65.54,67.84 -115.63,162 -150.43,282.76l12.99 0c164.83,0 291.59,-21.55 379.4,-64.48 87.8,-42.93 131.88,-105.21 131.88,-186.65 0,-38.69 -13.34,-70.14 -39.66,-95.75 -26.32,-25.18 -67.75,-37.63 -124.11,-37.63zm1202.67 1055.77l160.41 -751.02c14.4,-75.08 21.82,-127.38 21.82,-156.26 0,-45.49 -12.99,-81.8 -38.51,-109.62 -25.53,-27.47 -66.69,-41.16 -123.4,-41.16 -64.04,0 -127.02,21.91 -188.15,65.28 -61.13,43.28 -114.83,105.21 -161.56,185.5 -46.64,80.12 -82.24,177.46 -105.91,292.03l-109.71 515.25 -182.23 0 253.78 -1189.24 151.14 0 -24.12 219.69 10.78 0c69.61,-88.16 136.65,-150.34 201.49,-187.09 64.84,-36.57 131.97,-54.86 201.23,-54.86 91.87,0 164.48,25.26 217.83,75.61 53,50.09 79.68,120.4 79.68,211.12 0,57.06 -8.13,122.25 -24.82,195.4l-155.29 729.37 -184.44 0zm920.26 -126.67c40.02,0 91.87,-9.19 156.35,-28.18l0 140.1c-24.47,10.34 -54.86,18.9 -91.16,26.32 -36.31,6.98 -65.19,10.78 -86.74,10.78 -90.37,0 -159.62,-21.55 -207.85,-64.57 -48.14,-43.37 -72.17,-107.41 -72.17,-192.92 0,-47.52 6.27,-102.03 19.61,-162.8l137.8 -653.5 -186.74 0 15.19 -79.24 200.78 -84.45 135.68 -247.6 106.27 0 -59.63 273.48 297.51 0 -28.53 137.8 -296.01 0 -140.1 655.44c-12.9,62.98 -19.61,110.68 -19.61,143.37 0,40.81 10.42,71.9 31.54,93.37 21.11,21.82 50.35,32.6 87.8,32.6z"/>
  <path class="fil1" d="M6872.57 9040.47l1668.1 0 0 -2572.02c0,-381.96 50.88,-738.56 140.01,-1056.92 292.92,-967.61 1082.36,-1362.38 1769.95,-1362.38 229.14,0 394.68,25.53 394.68,25.53l0 -1591.69c0,0 -152.82,-25.44 -292.83,-25.44 -993.23,0 -1769.95,738.47 -2062.78,1667.92l-25.44 0c0,0 25.44,-165.54 25.44,-407.4l0 -382.05c0,-547.49 -292.92,-789.44 -865.85,-789.44l-751.28 0 0 6493.88z"/>
  <path class="fil3" d="M29756.76 5793.48c0,1884.52 1375.19,3399.72 3514.37,3399.72 1359.82,0 2482.63,-740.59 3364.82,-1702.29l0 1549.56 1617.04 0 0 -2979.51c0,-305.55 25.44,-585.66 101.85,-840.32 49.11,-160.24 115.36,-310.85 197.16,-449.36 68.9,-98.4 139.57,-196.46 212.53,-293.71 329.66,-375.16 799.07,-606.77 1347.45,-606.77 814.97,0 1031.39,534.95 1031.39,1324.31l0 2979.6c0,611.18 254.67,865.76 853.04,865.76l770.45 0 0 -1522.62c-12.63,-34.8 -19.17,-74.91 -19.17,-119.87l0 -2533.86c0,-1718.98 -814.88,-2470.18 -2266.39,-2470.18 -1055.68,0 -1828.78,587.69 -2170.28,1177.41l-5.92 -7.24c-23.85,39.04 -47.7,77.56 -71.55,115.81l-6.01 0c0,0 25.44,-229.14 25.44,-547.49l0 -2403.22c-197.6,0 -395.38,0 -592.99,0 -391.41,-26.06 -1022.03,215.8 -1024.06,882.28l0 4129.44c-779.99,803.58 -2053.33,2039.02 -3224.81,2039.02 -1044.11,0 -2024.53,-674.96 -2024.53,-1999.09 0,-1171.4 802.16,-2024.53 1922.68,-2024.53 394.68,0 929.54,152.82 929.54,509.25l0 356.6 1426.07 0 0 -764.09c0,-1120.43 -1515.28,-1464.31 -2355.61,-1464.31 -2228.23,0 -3552.53,1566.16 -3552.53,3399.72z"/>
  <path class="fil1" d="M11854.97 6723.02c0,1769.86 853.13,2470.18 2241.04,2470.18 1120.43,0 1935.4,-674.78 2240.95,-1349.57l25.53 0c0,0 -12.81,139.92 -12.81,292.74l0 178.35c0,458.37 292.92,725.75 853.13,725.75l729.11 0c0,-2162.07 -28.8,-4326.34 -28.8,-6493.88l-1617.04 0 0 2979.6c0,1158.77 -649.43,2189.98 -1820.83,2189.98 -802.16,0 -1005.95,-534.77 -1005.95,-1324.13l0 -2992.32c0,-585.66 -254.67,-853.13 -853.04,-853.13l-751.28 0 0 1655.29 0 2521.14z"/>
  <path class="fil1" d="M46549.79 4694.34l456.78 0 0 -854.28 449.89 0c463.75,0 788.03,-334.79 788.03,-815.94 0,-481.16 -324.27,-805.43 -788.03,-805.43l-1133.33 0 0 386.9 226.67 0 0 2088.75zm456.78 -1244.8l0 -843.94 373.12 0c251.05,0 397.5,163.95 397.5,418.53 0,258.11 -146.46,425.42 -404.48,425.42l-366.14 0z"/>
  <path class="fil1" d="M48659.38 4694.34l456.78 0 0 -923.97 230.2 0c128.97,0 181.26,17.31 233.56,115.1l317.38 624.08c80.21,156.88 160.41,184.79 345.21,184.79l240.53 0 0 -386.99 -45.32 0c-76.67,0 -135.95,-6.98 -174.28,-80.21l-240.62 -477.8c-45.32,-90.54 -122.08,-125.52 -122.08,-125.52l0 -6.98c104.59,-20.94 411.46,-205.73 411.46,-651.99 0,-467.29 -317.3,-746.16 -770.63,-746.16l-1108.86 0 0 386.9 226.67 0 0 2088.75zm456.78 -1314.59l0 -774.16 369.68 0c223.13,0 359.17,139.48 359.17,383.64 0,247.6 -136.03,390.53 -366.14,390.53l-362.7 0z"/>
  <path class="fil1" d="M50835.23 3812.24c0,547.41 387.08,924.06 976.36,924.06 582.39,0 969.38,-376.66 969.38,-924.06l0 -1129.88c0,-48.76 27.91,-76.76 76.76,-76.76l149.9 0 0 -386.9 -446.35 0c-167.3,0 -237.09,73.23 -237.09,237.09l0 1338.88c0,327.9 -205.73,516.14 -516.05,516.14 -310.41,0 -516.14,-188.24 -516.14,-512.51l0 -1342.5c0,-163.86 -69.7,-237.09 -237.09,-237.09l-446.35 0 0 386.9 149.99 0c48.76,0 76.67,28 76.67,76.76l0 1129.88z"/>
  <path class="fil1" d="M54008.45 4694.34l456.78 0 0 -2088.75 380.1 0c48.85,0 76.67,28 76.67,76.76l0 149.99 401.04 0 0 -390.53c0,-163.86 -55.83,-223.13 -223.13,-223.13l-1726.05 0c-167.39,0 -223.22,59.27 -223.22,223.13l0 390.53 401.04 0 0 -149.99c0,-48.76 27.91,-76.76 76.67,-76.76l380.1 0 0 2088.75z"/>
  <path class="fil1" d="M55720.55 4457.25c0,167.39 69.78,237.09 237.09,237.09l1122.82 0c163.95,0 237.18,-69.7 237.18,-237.09l0 -376.66 -414.99 0 0 149.99c0,48.76 -27.91,76.76 -76.67,76.76l-571.88 0c-48.85,0 -76.76,-28 -76.76,-76.76l0 -589.28 802.07 0 0 -386.99 -802.07 0 0 -648.73 557.92 0c48.85,0 76.76,28 76.76,76.76l0 149.99 414.91 0 0 -376.57c0,-163.86 -73.23,-237.09 -237.09,-237.09l-1495.94 0 0 386.9 226.67 0 0 1851.66z"/>
  <path class="fil1" d="M57495.44 3435.67c0,732.2 516.14,1300.63 1272.81,1300.63 638.13,0 997.2,-425.51 997.2,-425.51l-240.53 -327.72c0,0 -282.49,327.72 -749.69,327.72 -449.89,0 -805.52,-390.53 -805.52,-875.13 0,-516.14 348.65,-833.43 791.56,-833.43 216.15,0 512.6,83.56 512.6,265l0 139.39 414.91 0 0 -275.43c0,-421.88 -620.72,-554.38 -938.02,-554.38 -718.33,0 -1255.32,543.96 -1255.32,1258.85z"/>
  <path class="fil1" d="M60208.36 4694.34l456.78 0 0 -1039.16 1091.46 0 0 1039.16 456.78 0 0 -2011.99c0,-48.76 27.91,-76.76 76.76,-76.76l149.9 0 0 -386.9 -446.35 0c-163.86,0 -237.09,73.23 -237.09,237.09l0 812.5 -1091.46 0 0 -812.5c0,-163.86 -69.7,-237.09 -237.09,-237.09l-446.35 0 0 386.9 149.99 0c48.76,0 76.67,28 76.67,76.76l0 2011.99z"/>
  <path class="fil1" d="M63827.85 4694.34l456.78 0 0 -1000.65 791.56 0 0 -387.17 -791.56 0 0 -700.93 477.71 0c48.85,0 76.76,28 76.76,76.76l0 149.99 411.46 0 0 -376.57c0,-163.86 -69.78,-237.09 -237.09,-237.09l-1412.29 0 0 386.9 226.67 0 0 2088.75z"/>
  <polygon class="fil1" points="65449.31,4694.34 66376.82,4694.34 66376.82,4307.35 66129.31,4307.35 66129.31,2605.59 66376.82,2605.59 66376.82,2218.69 65449.31,2218.69 65449.31,2605.59 65696.91,2605.59 65696.91,4307.35 65449.31,4307.35 "/>
  <path class="fil1" d="M66627.87 4694.34l446.35 0c167.39,0 237.09,-69.7 237.09,-237.09l0 -1129.71c0,-143.01 -24.38,-348.74 -24.38,-348.74l6.98 0c0,0 108.12,209.18 205.73,348.74l941.47 1366.79 408.02 0 0 -2011.99c0,-48.76 27.91,-76.76 76.67,-76.76l149.99 0 0 -386.9 -446.35 0c-167.39,0 -237.09,73.23 -237.09,237.09l0 1133.15c0,143.1 24.38,348.83 24.38,348.83l-6.98 0c0,0 -108.12,-205.73 -205.73,-348.83l-938.02 -1370.24 -411.46 0 0 2011.9c0,48.76 -27.91,76.76 -76.67,76.76l-149.99 0 0 386.99z"/>
  <path class="fil1" d="M69232.66 4694.34l275.51 0c174.37,0 233.64,-45.32 289.38,-202.2l153.44 -432.4 836.88 0 153.44 432.4c55.83,156.88 118.54,202.2 292.92,202.2l271.98 0 0 -386.99 -55.83 0c-59.27,0 -87.19,-13.96 -108.03,-76.76l-732.29 -2011.9 -477.71 0 -735.73 2011.9c-20.94,62.81 -48.85,76.76 -108.12,76.76l-55.83 0 0 386.99zm822.92 -1011.25l212.71 -620.55c45.32,-136.03 97.7,-369.68 97.7,-369.68l6.98 0c0,0 52.29,233.64 97.61,369.68l212.71 620.55 -627.7 0z"/>
  <path class="fil1" d="M71663.09 4694.34l446.35 0c167.39,0 237.09,-69.7 237.09,-237.09l0 -1129.71c0,-143.01 -24.38,-348.74 -24.38,-348.74l6.98 0c0,0 108.12,209.18 205.73,348.74l941.47 1366.79 408.02 0 0 -2011.99c0,-48.76 27.91,-76.76 76.67,-76.76l149.99 0 0 -386.9 -446.35 0c-167.39,0 -237.09,73.23 -237.09,237.09l0 1133.15c0,143.1 24.38,348.83 24.38,348.83l-6.98 0c0,0 -108.12,-205.73 -205.73,-348.83l-938.02 -1370.24 -411.46 0 0 2011.9c0,48.76 -27.91,76.76 -76.67,76.76l-149.99 0 0 386.99z"/>
  <path class="fil1" d="M74334.13 3435.67c0,732.2 516.14,1300.63 1272.81,1300.63 638.13,0 997.2,-425.51 997.2,-425.51l-240.53 -327.72c0,0 -282.49,327.72 -749.69,327.72 -449.89,0 -805.52,-390.53 -805.52,-875.13 0,-516.14 348.65,-833.43 791.56,-833.43 216.15,0 512.6,83.56 512.6,265l0 139.39 414.91 0 0 -275.43c0,-421.88 -620.72,-554.38 -938.02,-554.38 -718.33,0 -1255.32,543.96 -1255.32,1258.85z"/>
  <polygon class="fil1" points="76834.34,4694.34 77761.85,4694.34 77761.85,4307.35 77514.34,4307.35 77514.34,2605.59 77761.85,2605.59 77761.85,2218.69 76834.34,2218.69 76834.34,2605.59 77081.94,2605.59 77081.94,4307.35 76834.34,4307.35 "/>
  <path class="fil1" d="M77932.69 4694.34l275.51 0c174.37,0 233.64,-45.32 289.38,-202.2l153.44 -432.4 836.88 0 153.44 432.4c55.83,156.88 118.54,202.2 292.92,202.2l271.98 0 0 -386.99 -55.83 0c-59.27,0 -87.19,-13.96 -108.03,-76.76l-732.29 -2011.9 -477.71 0 -735.73 2011.9c-20.94,62.81 -48.85,76.76 -108.12,76.76l-55.83 0 0 386.99zm822.92 -1011.25l212.71 -620.55c45.32,-136.03 97.7,-369.68 97.7,-369.68l6.98 0c0,0 52.29,233.64 97.61,369.68l212.71 620.55 -627.7 0z"/>
  <path class="fil1" d="M80589.78 4457.25c0,167.39 69.78,237.09 237.09,237.09l1091.46 0c167.39,0 237.09,-69.7 237.09,-237.09l0 -376.66 -414.91 0 0 149.99c0,48.76 -27.91,76.76 -76.76,76.76l-540.43 0c-48.85,0 -76.76,-28 -76.76,-76.76l0 -1774.81c0,-163.86 -69.7,-237.09 -237.09,-237.09l-446.35 0 0 386.9 149.99 0c48.76,0 76.67,28 76.67,76.76l0 1774.9z"/>
  <path class="fil1" d="M46576.64 8656.57c0,0 303.43,383.64 850.83,383.64 519.58,0 822.92,-334.79 822.92,-728.93 0,-812.32 -1164.6,-728.76 -1164.6,-1150.64 0,-156.88 153.35,-265 362.61,-265 163.86,0 327.81,76.76 327.81,191.77l0 111.57 411.46 0 0 -230.11c0,-352.19 -446.35,-488.13 -735.82,-488.13 -477.71,0 -826.37,296.27 -826.37,697.4 0,770.63 1164.69,735.65 1164.69,1157.62 0,191.77 -167.39,292.92 -355.72,292.92 -345.21,0 -599.79,-292.92 -599.79,-292.92l-258.02 320.83z"/>
  <path class="fil1" d="M48724.66 8761.15c0,167.39 69.78,237.09 237.09,237.09l1122.82 0c163.95,0 237.18,-69.7 237.18,-237.09l0 -376.66 -414.99 0 0 149.99c0,48.76 -27.91,76.76 -76.67,76.76l-571.88 0c-48.85,0 -76.76,-28 -76.76,-76.76l0 -589.28 802.07 0 0 -386.99 -802.07 0 0 -648.73 557.92 0c48.85,0 76.76,28 76.76,76.76l0 149.99 414.91 0 0 -376.57c0,-163.86 -73.23,-237.09 -237.09,-237.09l-1495.94 0 0 386.9 226.67 0 0 1851.66z"/>
  <path class="fil1" d="M50740.18 8998.24l456.78 0 0 -923.97 230.2 0c128.97,0 181.26,17.31 233.56,115.1l317.38 624.08c80.21,156.88 160.41,184.79 345.21,184.79l240.53 0 0 -386.99 -45.32 0c-76.67,0 -135.95,-6.98 -174.28,-80.21l-240.62 -477.8c-45.32,-90.54 -122.08,-125.52 -122.08,-125.52l0 -6.98c104.59,-20.94 411.46,-205.73 411.46,-651.99 0,-467.29 -317.3,-746.16 -770.63,-746.16l-1108.86 0 0 386.9 226.67 0 0 2088.75zm456.78 -1314.59l0 -774.16 369.68 0c223.13,0 359.17,139.48 359.17,383.64 0,247.6 -136.03,390.53 -366.14,390.53l-362.7 0z"/>
  <path class="fil1" d="M53533.3 8998.24l481.16 0 739.27 -2011.99c20.94,-59.27 48.85,-76.76 108.12,-76.76l66.25 0 0 -386.9 -292.92 0c-174.37,0 -233.64,45.32 -289.47,202.11l-474.18 1380.84c-48.85,139.48 -94.16,362.7 -94.16,362.7l-6.98 0c0,0 -45.32,-223.22 -94.16,-362.7l-474.18 -1380.84c-55.83,-156.79 -118.63,-202.11 -292.92,-202.11l-289.47 0 0 386.9 62.81 0c59.27,0 87.19,17.49 108.12,76.76l742.71 2011.99z"/>
  <polygon class="fil1" points="55098.94,8998.24 56026.45,8998.24 56026.45,8611.25 55778.93,8611.25 55778.93,6909.49 56026.45,6909.49 56026.45,6522.59 55098.94,6522.59 55098.94,6909.49 55346.54,6909.49 55346.54,8611.25 55098.94,8611.25 "/>
  <path class="fil1" d="M56263.54 7739.57c0,732.2 516.14,1300.63 1272.81,1300.63 638.13,0 997.2,-425.51 997.2,-425.51l-240.53 -327.72c0,0 -282.49,327.72 -749.69,327.72 -449.89,0 -805.52,-390.53 -805.52,-875.13 0,-516.14 348.65,-833.43 791.56,-833.43 216.15,0 512.6,83.56 512.6,265l0 139.39 414.91 0 0 -275.43c0,-421.88 -620.72,-554.38 -938.02,-554.38 -718.33,0 -1255.32,543.96 -1255.32,1258.85z"/>
  <path class="fil1" d="M58976.45 8761.15c0,167.39 69.78,237.09 237.09,237.09l1122.82 0c163.95,0 237.18,-69.7 237.18,-237.09l0 -376.66 -414.99 0 0 149.99c0,48.76 -27.91,76.76 -76.67,76.76l-571.88 0c-48.85,0 -76.76,-28 -76.76,-76.76l0 -589.28 802.07 0 0 -386.99 -802.07 0 0 -648.73 557.92 0c48.85,0 76.76,28 76.76,76.76l0 149.99 414.91 0 0 -376.57c0,-163.86 -73.23,-237.09 -237.09,-237.09l-1495.94 0 0 386.9 226.67 0 0 1851.66z"/>
  <path class="fil1" d="M60758.33 8656.57c0,0 303.43,383.64 850.83,383.64 519.58,0 822.92,-334.79 822.92,-728.93 0,-812.32 -1164.6,-728.76 -1164.6,-1150.64 0,-156.88 153.35,-265 362.61,-265 163.86,0 327.81,76.76 327.81,191.77l0 111.57 411.46 0 0 -230.11c0,-352.19 -446.35,-488.13 -735.82,-488.13 -477.71,0 -826.37,296.27 -826.37,697.4 0,770.63 1164.69,735.65 1164.69,1157.62 0,191.77 -167.39,292.92 -355.72,292.92 -345.21,0 -599.79,-292.92 -599.79,-292.92l-258.02 320.83z"/>
  <path class="fil1" d="M63830.41 8998.24l456.78 0 0 -854.28 449.89 0c463.75,0 788.03,-334.79 788.03,-815.94 0,-481.16 -324.27,-805.43 -788.03,-805.43l-1133.33 0 0 386.9 226.67 0 0 2088.75zm456.78 -1244.8l0 -843.94 373.12 0c251.05,0 397.5,163.95 397.5,418.53 0,258.11 -146.46,425.42 -404.48,425.42l-366.14 0z"/>
  <path class="fil1" d="M66546.78 8998.24l481.16 0 739.27 -2011.99c20.94,-59.27 48.85,-76.76 108.12,-76.76l66.25 0 0 -386.9 -292.92 0c-174.37,0 -233.64,45.32 -289.47,202.11l-474.18 1380.84c-48.85,139.48 -94.16,362.7 -94.16,362.7l-6.98 0c0,0 -45.32,-223.22 -94.16,-362.7l-474.18 -1380.84c-55.83,-156.79 -118.63,-202.11 -292.92,-202.11l-289.47 0 0 386.9 62.81 0c59.27,0 87.19,17.49 108.12,76.76l742.71 2011.99z"/>
  <path class="fil1" d="M68914.39 8998.24l456.78 0 0 -2088.75 380.1 0c48.85,0 76.67,28 76.67,76.76l0 149.99 401.04 0 0 -390.53c0,-163.86 -55.83,-223.13 -223.13,-223.13l-1726.05 0c-167.39,0 -223.22,59.27 -223.22,223.13l0 390.53 401.04 0 0 -149.99c0,-48.76 27.91,-76.76 76.67,-76.76l380.1 0 0 2088.75z"/>
  <polygon class="fil1" points="70284.81,8998.24 70713.67,8998.24 70713.67,8555.42 70284.81,8555.42 "/>
  <path class="fil1" d="M72230.55 8761.15c0,167.39 69.78,237.09 237.09,237.09l1091.46 0c167.3,0 237,-69.7 237,-237.09l0 -376.66 -414.82 0 0 149.99c0,48.76 -27.91,76.76 -76.76,76.76l-540.43 0c-48.85,0 -76.76,-28 -76.76,-76.76l0 -1774.81c0,-163.86 -69.7,-237.09 -237.09,-237.09l-446.35 0 0 386.9 149.99 0c48.76,0 76.67,28 76.67,76.76l0 1774.9z"/>
  <path class="fil1" d="M74392.44 8998.24l456.78 0 0 -2088.75 380.1 0c48.85,0 76.67,28 76.67,76.76l0 149.99 401.04 0 0 -390.53c0,-163.86 -55.83,-223.13 -223.13,-223.13l-1726.05 0c-167.3,0 -223.13,59.27 -223.13,223.13l0 390.53 400.95 0 0 -149.99c0,-48.76 27.91,-76.76 76.67,-76.76l380.1 0 0 2088.75z"/>
  <path class="fil1" d="M76104.53 8761.15c0,167.39 69.78,237.09 237.09,237.09l543.96 0c763.65,0 1262.29,-460.22 1262.29,-1241.27 0,-781.23 -498.65,-1234.38 -1262.29,-1234.38l-1007.72 0 0 386.9 226.67 0 0 1851.66zm456.78 -226.67l0 -1624.99 299.89 0c488.22,0 812.5,296.45 812.5,847.48 0,557.92 -317.3,854.28 -812.5,854.28l-223.13 0c-48.85,0 -76.76,-28 -76.76,-76.76z"/>
  <polygon class="fil1" points="78454.74,8998.24 78883.61,8998.24 78883.61,8555.42 78454.74,8555.42 "/>
 </g>
</svg>
